<?xml version="1.0" encoding="UTF-8" standalone="no"?>
<!-- Created with Inkscape (http://www.inkscape.org/) -->

<svg
   xmlns:dc="http://purl.org/dc/elements/1.1/"
   xmlns:cc="http://creativecommons.org/ns#"
   xmlns:rdf="http://www.w3.org/1999/02/22-rdf-syntax-ns#"
   xmlns:svg="http://www.w3.org/2000/svg"
   xmlns="http://www.w3.org/2000/svg"
   xmlns:sodipodi="http://sodipodi.sourceforge.net/DTD/sodipodi-0.dtd"
   xmlns:inkscape="http://www.inkscape.org/namespaces/inkscape"
   version="1.1"
   id="svg2"
   width="800"
   height="600"
   viewBox="0 0 800 600.00001"
   sodipodi:docname="ballon.svg"
   inkscape:version="0.92.1 r15371">
  <metadata
     id="metadata8">
    <rdf:RDF>
      <cc:Work
         rdf:about="">
        <dc:format>image/svg+xml</dc:format>
        <dc:type
           rdf:resource="http://purl.org/dc/dcmitype/StillImage" />
        <dc:title></dc:title>
      </cc:Work>
    </rdf:RDF>
  </metadata>
  <defs
     id="defs6" />
  <sodipodi:namedview
     pagecolor="#ffffff"
     bordercolor="#666666"
     borderopacity="1"
     objecttolerance="10"
     gridtolerance="10"
     guidetolerance="10"
     inkscape:pageopacity="0"
     inkscape:pageshadow="2"
     inkscape:window-width="1668"
     inkscape:window-height="1013"
     id="namedview4"
     showgrid="false"
     inkscape:zoom="1.3183333"
     inkscape:cx="540.70796"
     inkscape:cy="300"
     inkscape:window-x="0"
     inkscape:window-y="0"
     inkscape:window-maximized="1"
     inkscape:current-layer="svg2"
     fit-margin-top="0"
     fit-margin-left="0"
     fit-margin-right="0"
     fit-margin-bottom="0" />
  <rect
     style="opacity:1;fill:#74ff78;fill-opacity:0.99567099;stroke:none;stroke-width:0.57351166;stroke-linecap:round;stroke-linejoin:round;stroke-miterlimit:4;stroke-dasharray:none;stroke-dashoffset:0;stroke-opacity:1"
     id="fond"
     width="800"
     height="600"
     x="0"
     y="0" />
  <g
     id="ballon"
     transform="matrix(0.0522495,0,0,0.0522495,240.79956,207.12518)">
    <path
       style="fill:#d7d7d7;stroke-width:1.33333337"
       d="m 1014,2080.573 c -2.2,-0.2838 -18.4,-1.1118 -36,-1.8398 -81.92891,-3.389 -192.46483,-25.4247 -273.35476,-54.494 -28.01371,-10.0672 -49.40895,-17.3624 -65.31191,-22.2694 -60.72356,-18.7365 -168.34729,-83.0592 -252,-150.6108 -42.64989,-34.4408 -111.60474,-100.6054 -145.93065,-140.0257 -44.85119,-51.5076 -62.63897,-78.0788 -68.60353,-102.4795 -3.48983,-14.2766 -7.72807,-21.0289 -23.83002,-37.9649 -17.19735,-18.0881 -25.57883,-31.1669 -42.17776,-65.8157 C 57.776136,1402.7584 19.523217,1267.3175 6.1305336,1148.6666 2.4093639,1115.6994 1.3228214,1083.9422 1.4774245,1012.6667 c 0.117468,-54.1557 0.034939,-49.64909 1.369013,-74.75696 1.6039953,-30.18791 5.0751286,-43.22479 17.2848175,-64.9183 l 6.571124,-11.67521 -2.017856,-15.39308 c -2.52068,-19.22883 -2.518992,-23.9863 0.01375,-38.74851 12.830706,-74.78437 68.089826,-206.13049 128.391177,-305.17465 47.41942,-77.88574 100.69768,-145.2856 168.1655,-212.73833 43.45841,-43.44869 72.34469,-67.25941 97.84712,-80.65457 10.19222,-5.35348 14.20037,-8.49833 24.04302,-18.8646 22.67343,-23.8796 54.76355,-45.15041 112.18824,-74.36356 C 631.28055,76.743001 717.85745,44.190401 798,24.137149 829.57631,16.236132 875.34909,9.5619692 886.18633,11.278636 910.80317,15.17805 910.79171,15.178158 924.12236,10.92094 945.00495,4.2519766 961.35183,2.4136092 1006,1.7129961 c 32.8126,-0.5148905 46.4687,-0.120564 76,2.1945366 125.1132,9.8082213 226.5167,32.0473543 338,74.1278963 62.3537,23.536061 148.2431,66.462941 182.4135,91.168941 16.4128,11.86681 23.1416,18.11508 34.2261,31.78201 10.5515,13.00972 13.0764,14.94143 25.3604,19.40248 14.3039,5.19459 19.2269,7.4641 27.2653,12.56904 14.1751,9.00226 32.898,25.06028 57.8751,49.63748 127.5544,125.51243 225.3864,280.28145 282.2485,446.51401 15.8583,46.36078 17.7771,54.77726 17.8334,78.22393 0.027,11 -0.3856,22.49113 -0.9154,25.53587 -0.9081,5.21877 -0.4982,6.23701 7.1558,17.77668 10.4604,15.77109 13.9882,23.62962 17.1872,38.28686 6.2858,28.80098 7.0137,42.50424 7.1036,133.73397 0.089,90.1546 -0.265,98.2592 -6.4599,147.9999 -9.7112,77.9749 -29.9091,165.4963 -53.5263,231.9403 -12.123,34.1065 -20.0569,50.08 -34.5305,69.5213 -6.6399,8.9188 -10.6363,16.4498 -18.0136,33.9456 -17.0975,40.5476 -31.104,66.3339 -58.4852,107.6723 -45.4024,68.5457 -104.7619,138.7329 -162.2264,191.8181 -34.9363,32.274 -53.4747,47.045 -94.5116,75.3048 -11.7333,8.0802 -33.9333,23.3619 -49.3333,33.9596 -15.4,10.5976 -34.3246,23.2382 -42.0546,28.0902 -66.1094,41.4957 -155.5698,79.3178 -240.6121,101.7262 -21.1414,5.5707 -47.3392,10.6424 -99.4137,19.246 -74.5491,12.3168 -81.769,13.2988 -109.253,14.8602 -25.3617,1.4408 -88.8801,2.6546 -95.3333,1.8218 z m 671.5267,-601.6388 c 31.8738,-16.465 75.5682,-41.5596 72.413,-41.5882 -0.7664,-0.013 -8.2664,3.0265 -16.6666,6.741 -8.4002,3.7146 -26.0416,10.3644 -39.2032,14.7778 -34.1208,11.441 -40.0892,14.8705 -36.7471,21.1156 2.9128,5.4425 8.1695,5.1704 20.2039,-1.0462 z"
       id="path4501"
       inkscape:connector-curvature="0"
       sodipodi:nodetypes="ccccssccssssscsssssssssssssccsccsccccccsccsccccssccsccccs" />
    <path
       style="fill:#c8c8c8;stroke-width:1.33333337"
       d="m 992,2079.3273 c -32.79829,-1.762 -38.68476,-2.2831 -69.33333,-6.1373 C 839.58369,2062.7418 767.69081,2045.7402 692,2018.6408 c -17.96667,-6.4326 -38.06667,-13.2114 -44.66667,-15.064 -20.28752,-5.6947 -34.40705,-11.3579 -60.89442,-24.4246 C 502.78761,1937.886 412.60039,1875.7436 338,1807.9685 279.85013,1755.1388 217.27089,1686.3417 191.07857,1646.4492 180.9158,1630.9706 178.05161,1624.736 173.793,1608.8229 c -4.30049,-16.0695 -7.70711,-21.5372 -23.77279,-38.1563 -19.12306,-19.7817 -34.69931,-46.4368 -55.505447,-94.9848 C 51.822651,1376.0664 21.83498,1265.4187 8.7781369,1159.3333 2.6627984,1109.6469 2.1042789,1097.7958 2.1173824,1018 2.1279517,953.63604 2.4784471,939.50574 4.4066153,925.70905 7.3749573,904.46955 11.931083,890.3176 20.945031,874.33844 l 7.330498,-12.99488 -1.444801,-8.33845 C 24.157885,837.5792 23.585467,822.07253 25.262696,810.52748 30.495505,774.50792 56.531049,698.00435 85.321117,634.05012 133.60293,526.79695 192.13791,435.16161 268.62895,347.08531 c 23.8195,-27.42718 87.31514,-90.4707 106.70438,-105.94459 25.55776,-20.39678 48.1569,-34.42176 52.9116,-32.83686 0.84947,0.28316 -3.13146,5.58063 -8.8465,11.77215 -20.5488,22.26201 -46.87087,60.06121 -67.92046,97.53558 -16.5785,29.51459 -35.30658,71.22123 -41.35732,92.10104 -3.68656,12.72158 -6.57792,36.08394 -5.89042,47.59518 l 0.43644,7.30781 5.60005,-5.06945 c 8.02647,-7.26596 14.04547,-17.03196 19.44257,-31.54618 2.59056,-6.96666 7.40142,-19.86666 10.69078,-28.66666 17.79906,-47.61759 44.10752,-98.27219 69.24926,-133.33333 5.2586,-7.33334 19.10783,-25.61031 30.77606,-40.6155 11.66822,-15.0052 20.6236,-27.47929 19.90081,-27.72021 -0.72277,-0.24093 -5.36329,1.08604 -10.31225,2.94883 -9.16666,3.45032 -15.34728,4.33594 -15.34728,2.19913 0,-3.48475 10.48113,-15.46491 22.0679,-25.22408 63.74663,-53.69179 218.67616,-122.7049 344.82615,-153.602257 46.07491,-11.284925 87.04844,-14.6804247 104.11049,-8.627697 5.26182,1.866617 6.47943,1.799296 17.22244,-0.952208 l 11.56031,-2.960834 11.77303,2.906478 c 6.47516,1.598561 18.07301,4.205105 25.77301,5.79232 56.4371,11.63347 114.3814,30.355775 157.3975,50.856496 20.8478,9.935657 29.3563,15.167499 46.1727,28.391314 14.1757,11.147268 9.1917,9.796998 66.4298,17.997318 66.9613,9.59336 103.2499,16.5485 157.3333,30.15486 72.1931,18.16237 138.1216,40.9512 179.586,62.07566 l 18.2527,9.299 7.1413,-2.67189 c 10.2012,-3.8168 22.782,-6.04655 28.288,-5.01361 2.6027,0.48824 4.732,1.35834 4.732,1.93356 0,0.57521 -4.95,2.0987 -11,3.38552 -13.2576,2.81988 -22.3333,6.58794 -22.3333,9.27242 0,1.08602 8.1844,12.96975 18.1876,26.40831 35.9225,48.25916 61.5532,89.94824 88.8119,144.45516 19.083,38.15874 30.8446,65.77672 54.8534,128.80429 2.6872,7.05414 6.6503,15.45414 8.8071,18.66666 2.1568,3.21252 17.7149,19.21322 34.5736,35.55708 40.7587,39.51411 69.7592,72.7209 106.6597,122.12979 18.5827,24.88172 48.5136,69.74534 65.039,97.48741 14.2636,23.94515 22.4578,35.72124 27.137,38.99865 2.6519,1.85742 3.5131,1.52406 13.0516,-5.05181 5.6168,-3.87225 12.7954,-9.11151 15.9522,-11.6428 3.1569,-2.53128 6.1569,-4.18421 6.6666,-3.67319 0.5099,0.51103 0.7947,5.65324 0.6331,11.42715 -0.2585,9.2382 0.075,10.94465 2.7767,14.22 22.9065,27.76812 27.833,49.58396 30.4162,134.69046 1.6828,55.44072 0.1,128.24092 -3.56,163.69822 -7.25,70.2429 -22.5478,147.7688 -42.4909,215.3333 -17.5905,59.5949 -31.824,92.3325 -50.4651,116.0719 -9.893,12.5989 -11.8088,16.0184 -18.3008,32.6666 -35.2784,90.4691 -127.4608,214.6674 -226.0822,304.6028 -34.3196,31.297 -49.4251,42.994 -105.2046,81.4658 -19.5581,13.4894 -43.1881,29.8129 -52.5112,36.2745 -82.6766,57.3012 -215.3594,110.746 -315.0904,126.9189 -12.0233,1.9498 -37.7605,6.1643 -57.1938,9.3656 -67.5746,11.1319 -85.7305,13.2796 -129.3334,15.299 -33.8382,1.567 -45.3595,1.4765 -85.3333,-0.6711 z M 1379.2891,1853 c -0.5075,-2.3834 -1.9052,-7.3334 -3.1059,-11 l -2.1832,-6.6667 -25.3333,-0.9319 c -137.6105,-5.0617 -225.7112,-17.6958 -364.6667,-52.2953 -45.30217,-11.2801 -48,-11.8453 -48,-10.0563 0,1.6259 11.09745,8.7903 22.66667,14.6334 19.14013,9.6666 59.48443,21.0061 115.82563,32.5549 83.9275,17.2032 157.8344,26.6441 246.1744,31.4463 24.6664,1.3409 52.198,4.4025 53.7756,5.98 0.3678,0.368 1.8165,0.6689 3.2192,0.6689 2.1777,0 2.4156,-0.6331 1.6276,-4.3333 z m 313.6385,-344.9463 c 35.0504,-4.5149 55.6747,-11.3577 109.1388,-36.2104 32.3117,-15.02 85.9417,-44.1593 105.2669,-57.1956 9.7247,-6.5601 25.9668,-16.0881 33.0328,-19.3779 15.4486,-7.1925 20.0826,-3.3673 25.5172,21.0635 1.2642,5.6833 2.6503,10.3333 3.08,10.3333 0.4299,0 0.4212,-9.45 -0.019,-21 -1.0552,-27.6721 -3.3308,-39.2965 -16.574,-84.6666 -1.17,-4.0082 -4.2147,-2.6552 -18.1684,8.074 -66.3079,50.9853 -152.1743,97.7877 -240.2018,130.9246 -33.0181,12.4294 -38.794,16.3374 -45.8944,31.0532 l -3.9958,8.2815 2.9452,2.3035 c 5.8838,4.602 16.0537,8.543 22.945,8.8918 1.4667,0.075 11.7842,-1.0394 22.9276,-2.4749 z M 917.08149,1404.7434 c -0.007,-41.7197 -0.43828,-58.4558 -1.54497,-59.8277 -1.67277,-2.0736 -18.80397,-14.7818 -72.20319,-53.5617 -97.30421,-70.6648 -188.94857,-142.8655 -270,-212.7157 -34.0604,-29.3533 -39.89096,-33.6601 -44.3593,-32.7665 -5.35802,1.0716 -19.6407,7.5549 -19.6407,8.9155 0,2.0787 18.83155,25.9423 30.20156,38.2718 44.17242,47.9001 196.79503,171.9451 316.57762,257.3005 11.42854,8.1438 24.17841,18.4785 28.33302,22.966 13.98078,15.1009 25.63928,44.9722 30.31555,77.6744 0.91756,6.4166 1.81692,11.6666 1.99859,11.6666 0.18165,0 0.32648,-26.0654 0.32182,-57.9232 z m 843.58521,-57.3696 c 45.4608,-9.7458 72.81,-18.7072 104,-34.0769 48.117,-23.7111 80.4988,-45.3996 90.6764,-60.7329 15.377,-23.1666 27.681,-73.287 38.5984,-157.2307 8.4741,-65.1573 12.55,-163.28417 8.6357,-207.90591 -1.6737,-19.08019 -4.6289,-27.5345 -20.5401,-58.76074 -40.7874,-80.0466 -108.0858,-170.5261 -186.804,-251.14905 l -21.6602,-22.18428 -21.1197,7.13418 c -84.1511,28.42585 -160.0104,56.91532 -238.0771,89.41142 -37.2332,15.49872 -44.2981,19.19212 -46.8009,24.46631 -2.8531,6.01249 -2.8305,12.54781 0.092,26.50747 4.3388,20.72844 2.922,81.60223 -3.6576,157.14729 -3.3029,37.92465 -6.7775,76.42962 -8.0008,88.66666 -2.9344,29.35395 -5.3501,54.09745 -6.7039,68.66665 -0.7836,8.4334 -1.979,20.1334 -2.6565,26 -3.2669,28.2903 -4.3515,51.9781 -2.7327,59.6835 2.9318,13.9549 9.9631,25.8705 21.8236,36.9832 30.9998,29.0451 45.6418,43.1813 105.1303,101.4981 67.7083,66.3748 84.0523,81.1113 101.7976,91.7859 11.5003,6.9178 28.6131,15.7533 34,17.5544 6.362,2.1272 37.1229,0.1536 54,-3.4646 z m -382.7496,-150.8146 c 1.159,-1.1592 1.7665,-2.6592 1.3498,-3.3334 -1.1797,-1.9087 -6.7613,-1.4415 -8.5517,0.7158 -3.5047,4.2227 3.1705,6.6489 7.2019,2.6176 z m -1186.06814,-22.384 c -0.92231,-2.2964 -6.41272,-14.3752 -12.20092,-26.8419 -47.71023,-102.7585 -76.61783,-196.438 -90.311016,-292.66665 -2.347924,-16.5 -4.880903,-30.6 -5.628839,-31.33333 -0.923748,-0.90571 -1.11696,5.08099 -0.602441,18.66667 2.327227,61.44958 30.234146,169.46001 65.971126,255.33331 13.37624,32.1421 18.4767,42.8855 34.03496,71.6895 8.54336,15.8169 9.60032,17.2469 9.98444,13.5086 0.23628,-2.2995 -0.325,-6.0598 -1.24731,-8.3562 z m 1167.93184,-48.2336 c 13.7568,-4.0854 24.7611,-12.6711 30.4212,-23.7354 3.8536,-7.5327 6.5165,-19.0876 14.4896,-62.8729 17.1567,-94.2194 30.0356,-186.5411 39.3391,-281.99998 1.5365,-15.76667 3.9556,-38.56666 5.3756,-50.66666 1.4198,-12.1 2.5814,-23.5 2.581,-25.33334 -5e-4,-3.38037 -18.2817,-20.71522 -60.654,-57.51409 -91.1772,-79.18431 -204.7497,-162.97452 -301.8824,-222.71945 -13.502,-8.30488 -25.1332,-16.04565 -25.8472,-17.20171 -0.956,-1.54789 1.7832,-10.33378 10.3924,-33.33333 33.615,-89.80309 63.7537,-161.53308 91.2002,-217.05613 5.2087,-10.53693 9.4704,-20.0257 9.4704,-21.08615 0,-2.1123 -9.322,-6.66063 -48.8153,-23.817707 -60.5619,-26.309881 -111.5912,-41.398944 -177.43073,-52.465187 -61.67332,-10.365993 -92.85164,-8.15606 -161.754,11.465196 -15.93606,4.538093 -42.5713,16.525584 -56.51047,25.433163 -27.65797,17.674354 -57.40391,61.675855 -73.28092,108.400405 -15.55559,45.77861 -21.66455,105.44951 -16.31071,159.319 5.16251,51.9444 11.02032,84.24426 18.59614,102.53884 6.93982,16.75876 13.1021,23.53669 24.40397,26.84212 7.3552,2.15114 8.40731,2.14586 19.76865,-0.0992 16.21338,-3.20388 79.61395,-21.36675 112,-32.08554 22.30084,-7.3809 88.22818,-26.78566 142,-41.79566 31.92563,-8.91179 60.18867,-12.6986 76.50967,-10.25112 18.9564,2.84268 1.8882,12.41516 -64.50967,36.17944 -104.67286,37.46318 -224.2875,93.01277 -251.2391,116.67658 -10.34314,9.0814 -12.61526,21.18925 -6.61248,35.23721 1.88013,4.4 5.18636,12.44135 7.34714,17.86966 2.26315,5.68548 9.98594,18.8469 18.21658,31.04529 7.85832,11.64661 17.58786,26.26928 21.6212,32.49484 45.49322,70.21991 97.2855,139.04568 152.45176,202.59021 56.50338,65.08476 203.77357,204.2732 247.68527,234.0931 11.1428,7.5669 33.7279,15.7431 68.5296,24.8089 11.9144,3.1037 28.9178,3.053 58.3223,-0.1737 l 22.3223,-2.4496 18.3444,6.1246 c 25.5398,8.5269 24.1625,8.2989 33.4585,5.5383 z m 650.8859,-214.52959 c 0,-1.79005 -0.6043,-3.62809 -1.3428,-4.08452 -1.6876,-1.043 -3.1998,2.66887 -2.1751,5.33916 1.2107,3.15471 3.5179,2.33182 3.5179,-1.25464 z M 588.60529,604.13611 c 2.38031,-5.2786 2.11635,-9.46945 -0.59645,-9.46945 -1.94891,0 -4.00884,5.90861 -4.00884,11.49882 0,5.66407 1.41775,5.03932 4.60529,-2.02937 z m 870.72921,-8.99447 c 2.5795,-2.5795 1.8084,-7.12486 -2.1522,-12.68714 -5.1522,-7.23543 -42.2183,-33.16246 -59.2172,-41.42115 -12.252,-5.95247 -9.077,0.87065 9.3682,20.13225 28.8092,30.08431 45.1902,40.78714 52.0012,33.97604 z"
       id="path4499"
       inkscape:connector-curvature="0" />
    <path
       style="fill:#b6b6b6;stroke-width:1.33333337"
       d="m 982,2078.6094 c -92.88472,-6.3156 -198.57545,-27.7877 -278.66667,-56.6137 -19.90766,-7.1651 -39.77701,-13.8361 -67.33333,-22.6068 -64.35352,-20.4827 -175.80241,-88.7776 -261.49395,-160.2412 -56.31984,-46.9687 -117.55836,-108.8548 -159.43498,-161.1211 -26.64443,-33.2549 -35.57343,-48.368 -40.84727,-69.137 -4.23591,-16.6816 -8.14216,-23.1695 -22.21069,-36.8896 -6.39162,-6.2334 -15.04552,-16.4334 -19.2309,-22.6667 -9.11123,-13.5695 -26.81972,-48.2251 -37.812829,-74 C 44.414972,1356.8014 12.946999,1228.4293 3.9440767,1104 0.06374631,1050.37 1.1234688,955.63669 5.9799981,921.99999 9.3368948,898.74985 12.053223,891.08496 24.248661,870.4498 c 4.8386,-8.18711 5.145844,-9.28463 3.919207,-14 -2.97778,-11.44704 -4.353693,-30.80079 -2.921676,-41.0966 6.842444,-49.19535 41.843603,-145.67221 81.756638,-225.35321 58.045,-115.87904 133.52962,-219.15878 225.13572,-308.0357 27.86296,-27.03285 56.03114,-50.01579 51.02344,-41.63096 -0.54747,0.91667 -6.15499,8.56667 -12.46115,17 -22.63291,30.26731 -35.57352,50.37819 -49.76115,77.33333 -11.94224,22.68913 -27.49958,57.44373 -34.02021,76 -2.96344,8.43333 -8.55889,24.31737 -12.43435,35.29788 -7.02257,19.89744 -16.54254,39.92263 -29.80857,62.70212 -9.45159,16.22958 -29.53296,52.09505 -36.95396,66 -3.32669,6.23333 -9.16776,17.18333 -12.98015,24.33333 -7.30886,13.70753 -8.14232,16.59465 -2.19704,7.61073 1.96155,-2.96409 5.88206,-7.70486 8.71223,-10.53504 2.83017,-2.83017 5.586,-6.555 6.12404,-8.2774 0.53805,-1.7224 2.46827,-4.63162 4.28937,-6.46496 1.8211,-1.83333 11.4165,-14.05297 21.3231,-27.15476 21.34458,-28.22882 38.47989,-49.29595 56.88356,-69.93586 7.4006,-8.29984 17.56486,-19.69984 22.58728,-25.33333 11.08264,-12.43108 13.13077,-16.34119 23.59808,-45.0511 19.85242,-54.45158 43.67892,-102.48742 68.91118,-138.92963 4.72391,-6.82258 17.08459,-23.02258 27.4682,-36 C 453.02733,213.20169 464,198.63289 464,197.02854 c 0,-1.7045 -2.78915,-1.19716 -13.58232,2.4706 -5.66333,1.92452 -11.24512,3.13531 -12.40396,2.69062 -1.87601,-0.7199 -1.89357,-1.21308 -0.16019,-4.49914 1.07074,-2.02985 5.74172,-7.38088 10.37996,-11.8912 C 498.49207,136.9271 640.92261,69.206676 770.0606,32.782625 c 40.27844,-11.360744 66.15616,-16.560623 96.60607,-19.412049 23.95857,-2.243558 44.43284,1.436992 42.0814,7.564749 -0.44275,1.153803 0.17412,2.778344 1.39358,3.67004 1.75676,1.284573 -2.50884,1.917107 -21.6435,3.209463 -32.08467,2.166998 -56.2392,5.878285 -83.63519,12.850342 -87.02857,22.148076 -186.49656,61.37083 -265.52963,104.70508 -35.89054,19.67897 -49.26432,30.55027 -67.61517,54.96309 -23.26916,30.95584 -38.01877,55.24019 -57.70027,94.99999 -15.82609,31.97126 -22.12805,48.37308 -31.93204,83.10793 l -2.00622,7.10795 8.29352,8.22538 c 10.63292,10.54558 11.91546,11.50812 26.64968,20.00036 21.63225,12.46802 32.72777,18.28595 76.3105,40.0134 62.54192,31.17924 93.96272,48.88164 114.59946,64.56506 11.73892,8.92127 25.22958,14.11837 44.40054,17.10469 3.11667,0.48549 5.6612,1.55602 5.65451,2.37897 -0.007,0.82293 -3.90909,6.89625 -8.672,13.49625 -12.40445,17.18894 -14.97179,23.03891 -17.26196,39.33334 -1.08224,7.7 -5.22292,34.1 -9.20152,58.66666 -3.9786,24.56667 -8.24141,51.56667 -9.47292,60 -1.23151,8.43334 -2.76184,18.63334 -3.40076,22.66667 -4.93321,31.14212 -12.03389,83.66328 -13.214,97.73929 -2.18017,26.00441 -1.83659,107.68785 0.54319,129.13353 2.38673,21.50848 5.92613,35.66831 10.36638,41.47209 7.07702,9.2504 37.28394,38.5259 60.99242,59.112 3.3,2.8653 6.3,5.5097 6.66666,5.8764 0.36667,0.3667 4.86667,4.258 10,8.6474 5.13334,4.3893 9.63334,8.3318 10,8.761 2.38443,2.7912 82.80346,69.1278 105.80479,87.277 6.49263,5.1231 16.54305,13.0888 22.33428,17.7018 19.17299,15.272 96.99759,73.5175 103.48615,77.4511 8.76434,5.3132 26.06437,11.0283 35.79553,11.8251 8.99615,0.7366 17.70297,-0.9518 43.33512,-8.4037 9.1176,-2.6507 25.5775,-7.4382 36.5775,-10.6389 18.3158,-5.3295 68.1129,-21.7904 106,-35.0394 8.4333,-2.9491 38.4333,-13.8949 66.6666,-24.324 90.4449,-33.4094 97.73,-36.0302 113.3334,-40.7723 10.8577,-3.2999 19.7877,-5.0258 30.5938,-5.9131 19.6971,-1.6173 25.3766,-4.143 29.1314,-12.9552 8.2293,-19.3137 13.818,-45.1763 29.0169,-134.2834 4.7532,-27.86672 9.2773,-52.61672 10.0535,-55.00005 1.509,-4.63404 3.8714,-5.85475 3.8704,-2 -7e-4,2.73057 -7.4135,61.00345 -13.3568,104.99995 -2.2786,16.8667 -4.4907,38.8276 -4.916,48.802 -0.6826,16.0078 -0.4447,19.2144 2.028,27.3333 1.5406,5.059 4.6364,12.085 6.8794,15.6135 2.243,3.5285 18.3179,20.9389 35.722,38.6898 35.6434,36.3535 73.3554,78.2038 144.9848,160.8948 59.1135,68.2421 69.474,79.6873 76.615,84.636 l 5.4914,3.8056 13.6098,-3.387 c 37.6273,-9.3637 118.3069,-46.1725 175.6097,-80.1192 31.4629,-18.6389 73.2679,-47.3035 79.1045,-54.2401 10.8348,-12.8763 34.8492,-121.5762 44.7804,-202.6953 5.3344,-43.5728 9.301,-102.87742 9.5422,-142.66668 0.124,-20.39201 1.3457,-29.62996 4.3126,-32.59695 3.2734,-3.27325 2.7762,-8.15013 -1.2074,-11.84389 -3.1771,-2.94599 -3.5763,-4.54265 -4.7639,-19.05396 -0.7131,-8.71119 -2.1331,-19.07745 -3.1556,-23.03613 -1.0225,-3.95868 -1.5763,-7.65558 -1.2303,-8.21534 0.346,-0.55976 2.4026,-0.34832 4.5702,0.46987 5.5856,2.10832 8.383,0.59401 34.9025,-18.89305 2.2648,-1.6643 2.6347,-1.44594 3.9521,2.33333 0.7995,2.2932 1.9566,4.16945 2.5714,4.16945 1.9673,0 16.903,23.48338 19.7141,30.99638 7.2135,19.27994 10.5024,47.50758 12.4059,106.47791 2.1668,67.12886 -0.1214,129.65436 -6.8496,187.19236 -11.7444,100.4309 -47.2308,234.4924 -75.4308,284.9653 -7.3108,13.0848 -22.6511,31.7014 -26.1224,31.7014 -3.1467,0 -3.1826,3.7889 0.3345,-35.3334 1.8704,-20.8056 0.8339,-56.4697 -2.1241,-73.0833 -4.4522,-25.0056 -14.3684,-58.25 -17.375,-58.25 -1.0738,0 -10.7977,6.6723 -21.6085,14.8273 -65.1652,49.1564 -144.4108,92.1526 -233.2588,126.5588 -26.5977,10.2999 -38.1211,16.2018 -42.1455,21.5856 -1.7932,2.399 -8.5465,13.6616 -15.0074,25.0283 -14.9496,26.3007 -30.4927,51.1603 -48.3511,77.3333 -18.8247,27.5891 -22.932,33.9039 -28.1199,43.2334 -4.775,8.5872 -29.1925,41.6721 -48.7833,66.1 -10.6233,13.2462 -12.8467,16.9277 -16.3344,27.0473 -3.3695,9.7761 -3.7425,12.0088 -2.2551,13.4961 2.2899,2.29 6.5398,1.4359 14.8976,-2.9942 37.4696,-19.8604 76.1847,-37.735 97.1438,-44.8508 10.4533,-3.549 22.4533,-5.6994 56.08,-10.0496 72.6362,-9.3967 120.2489,-23.1219 170.5381,-49.1603 28.9175,-14.9727 48.8903,-28.9532 84.5101,-59.1552 8.0207,-6.8007 13.3111,-10.3333 15.4751,-10.3333 1.8084,0 3.288,0.6238 3.288,1.3864 0,6.5018 -38.9667,67.1958 -68.3116,106.4014 -34.4299,45.999 -60.4492,75.8838 -102.9217,118.2122 -42.4323,42.2881 -68.1666,63.9285 -112.7667,94.8278 -10.6333,7.3668 -27.1333,18.7936 -36.6667,25.3928 -9.5333,6.5994 -24.0978,16.8719 -32.3654,22.8282 -50.5512,36.4181 -123.9836,72.5266 -201.6346,99.1488 -40.6066,13.9216 -94.4054,27.8457 -122.6666,31.7484 -18.949,2.6166 -28.7632,4.1513 -60,9.3825 -44.3959,7.4349 -55.8092,9.0619 -80.3283,11.4505 -25.4999,2.4844 -110.0306,3.6192 -136.3384,1.8304 z m 434.0876,-99.9897 c 3.5075,-1.8771 3.3045,-6.7959 -0.834,-20.2176 -6.3111,-20.4673 -39.6532,-123.0621 -40.2025,-123.7039 -0.299,-0.3493 -15.9578,-1.0612 -34.7972,-1.5818 -125.9707,-3.482 -239.3143,-20.8494 -380.19309,-58.2559 l -29.9392,-7.9496 -10.0608,5.0595 c -10.31945,5.1896 -17.24324,9.9754 -16.06081,11.1016 0.97223,0.926 35.49695,15.0266 53.33333,21.7825 39.91479,15.1185 102.24297,30.2133 171.99997,41.6553 64.2349,10.5362 102.8536,14.7335 172.5438,18.7531 49.6522,2.8637 47.0998,2.1843 55.7217,14.8341 2.7127,3.9799 13.1517,23.4363 23.1981,43.2363 23.318,45.9568 29.3296,56.5027 32.2907,56.6463 0.2316,0.013 1.5816,-0.6007 3,-1.3599 z M 926.19715,1685.7472 c -4.5979,-110.2699 -7.51046,-220.9116 -7.53964,-286.4139 -0.0107,-24.9333 -0.38847,-47.5611 -0.83859,-50.2837 -0.78309,-4.7368 -2.89651,-6.458 -48.98533,-39.8932 C 751.26701,1223.8676 666.51041,1157.4666 578,1081.3084 c -38.73035,-33.3253 -44.49752,-37.6756 -48.80465,-36.8142 -2.06388,0.4128 -13.82714,4.7314 -26.14059,9.5969 -85.23127,33.6778 -120.67183,47.9744 -127.05476,51.2534 -4.03333,2.072 -9.53533,4.4478 -12.22668,5.2796 -2.69133,0.8317 -5.54272,2.2947 -6.3364,3.2511 -0.79368,0.9563 -10.12869,5.2386 -20.74447,9.5162 -10.61578,4.2775 -19.15508,7.9237 -18.97621,8.1026 0.41463,0.4146 54.79257,-9.963 83.61709,-15.9577 12.1,-2.5164 33.87107,-6.5029 48.38015,-8.8588 l 26.38016,-4.2835 12.95317,7.7044 c 19.55215,11.6295 23.84931,14.9022 37.61986,28.6514 11.86377,11.8455 47.60422,43.5888 78,69.2767 7.33333,6.1975 13.63333,11.6117 14,12.0316 0.36666,0.4199 7.56666,6.412 16,13.3158 8.43333,6.9037 15.63333,12.8842 16,13.2898 1.27589,1.4116 32.70689,27.4188 38.66666,31.9943 3.3,2.5335 6.3,4.953 6.66667,5.3766 0.55304,0.639 15.2122,12.4334 22.63623,18.2126 1.11674,0.8694 5.63044,4.5299 10.03044,8.1346 4.4,3.6047 11.04925,8.8934 14.77613,11.7527 3.72687,2.8594 11.82687,9.0767 18,13.8163 16.7634,12.8706 57.00723,44.7185 64.12559,50.7472 5.58214,4.7277 6.96537,7.1317 13.20934,22.958 12.02916,30.4896 21.8002,60.3072 27.09291,82.6773 1.17115,4.95 3.01207,12.75 4.09092,17.3333 4.85885,20.6419 8.90091,45.242 15.39043,93.6667 12.21233,91.1281 16.96922,116.4007 24.33841,129.3052 2.24823,3.9369 4.57009,5.8843 9.00291,7.5507 10.35322,3.8918 10.03304,6.2148 7.50384,-54.442 z M 191.54971,1246.3333 c -0.36988,-0.9167 -0.67252,-0.1667 -0.67252,1.6667 0,1.8333 0.30264,2.5833 0.67252,1.6666 0.36988,-0.9166 0.36988,-2.4166 0,-3.3333 z M 192.58973,1225 c 2.1205,-12.9317 3.40966,-26.3462 3.40487,-35.4298 -0.005,-9.827 -0.35668,-10.9843 -8.77863,-28.9036 C 164.27816,1111.8622 152.34,1083.5355 137.97869,1043.8371 114.94954,980.17844 98.348175,913.01611 89.482519,847.64133 c -2.065464,-15.2306 -4.088235,-28.02484 -4.495047,-28.43165 -0.83892,-0.83892 -7.805471,2.51504 -13.40548,6.45391 -2.475739,1.74136 -3.472721,3.36464 -2.931964,4.77384 0.450657,1.17438 1.979075,13.17682 3.396484,26.67206 6.819173,64.92583 23.500968,135.43988 48.611208,205.47991 14.71917,41.0562 22.05777,58.3517 43.31205,102.0772 15.51979,31.9282 20.44859,43.5649 23.69522,55.9434 1.25837,4.7978 2.72134,8.7233 3.25106,8.7233 0.52971,0 1.28287,-1.95 1.67368,-4.3333 z m 1183.83117,-26.533 c 5.6239,-2.9601 5.7795,-7.8004 0.2508,-7.8004 -4.262,0 -9.3284,4.3657 -8.2692,7.1257 0.9906,2.5815 3.9267,2.8285 8.0184,0.6747 z M 587.72884,608.33332 c 3.9592,-8.79408 4.36661,-15 0.98473,-15 -2.54642,0 -4.50825,3.80316 -5.95413,11.54264 -2.08491,11.15994 0.64617,13.06003 4.9694,3.45736 z m 841.18636,319.43096 c -1.046,-4.28412 0.7693,-12.10356 2.9809,-12.84076 1.4715,-0.49051 1.6436,0.78877 0.8835,6.56697 -1.0705,8.13738 -2.7456,10.85676 -3.8644,6.27379 z m 2.3315,-18.9682 c -0.6046,-2.40856 -0.1946,-5.22016 1.1564,-7.93045 l 2.093,-4.19898 0.065,6 c 0.083,7.69276 -1.9692,11.48848 -3.3143,6.12943 z m 3.0449,-17.61564 c -1.6036,-1.60361 -1.0731,-6.51893 0.9993,-9.25895 1.86,-2.4592 1.9551,-2.38885 1.9063,1.41183 -0.063,4.93395 -1.6185,9.1342 -2.9056,7.84712 z m 1.7288,-23.51379 c 0.013,-1.65 0.602,-3.9 1.3129,-5 0.9615,-1.48766 1.2978,-0.71917 1.313,3 0.013,2.75 -0.5796,5 -1.313,5 -0.7333,0 -1.3241,-1.35 -1.3129,-3 z m -6.9627,-211.33333 c -33.4682,-30.0862 -39.7992,-35.60122 -66.5197,-57.94678 -86.3743,-72.23195 -178.4348,-139.15779 -270.5205,-196.66209 -15.0237,-9.38179 -27.5073,-18.05352 -27.7412,-19.27054 -0.5202,-2.70621 23.6041,-67.51489 44.1965,-118.73165 18.9089,-47.0295 35.6425,-85.09 54.2489,-123.38893 13.1945,-27.15905 14.7006,-29.66667 17.8176,-29.66667 5.1951,0 73.7963,8.79478 99.0694,12.70085 101.0262,15.61407 220.5978,49.37739 287.058,81.05637 27.6969,13.20206 28.074,13.5469 57.1172,52.24278 49.2425,65.60875 90.9098,141.66549 124.9086,228 14.4606,36.71984 23.5267,63.11785 23.0359,67.07368 -0.3635,2.93032 -4.3376,4.54401 -49.7284,20.1926 -84.0039,28.96053 -183.0516,67.3324 -248.1851,96.14893 -9.8434,4.35496 -19.0182,7.91812 -20.3884,7.91812 -1.3702,0 -12.3361,-8.85 -24.3688,-19.66667 z m 32.8471,-58.42857 c 2.876,-2.87607 2.6273,-9.39567 -0.5548,-14.54456 -3.5371,-5.72307 -17.9647,-17.07015 -40.6833,-31.99691 -31.3922,-20.62538 -43.3334,-26.68488 -43.3334,-21.98914 0,6.58724 45.2986,52.49604 64.6011,65.47138 8.4341,5.66952 16.1744,6.85523 19.9704,3.05923 z"
       id="path4497"
       inkscape:connector-curvature="0" />
    <path
       style="fill:#a6a6a6;stroke-width:1.33333337"
       d="M 984.66667,2077.8577 C 925.09619,2074.464 847.04167,2061.9336 782,2045.323 c -33.05357,-8.4413 -54.54583,-15.1237 -88.35459,-27.471 -15.20497,-5.553 -33.34541,-11.5548 -40.31208,-13.3375 -19.47804,-4.984 -37.17345,-11.7696 -62.32728,-23.9005 -78.77142,-37.9891 -172.63222,-101.6136 -243.33985,-164.9506 -63.87204,-57.214 -129.37165,-128.6905 -157.46369,-171.8326 -9.12466,-14.0131 -12.0524,-20.662 -15.68763,-35.6262 -3.88563,-15.9949 -7.9852,-22.8268 -21.64804,-36.076 -14.3028,-13.8697 -23.96825,-28.0712 -38.03887,-55.8908 C 77.255084,1441.9512 43.047553,1339.4914 23.477408,1242.6212 3.9982559,1146.2014 -2.6374575,1039.5358 4.5965843,939.12202 c 1.285166,-17.83905 6.4175367,-41.35466 11.1859077,-51.25183 2.262141,-4.69528 6.630832,-12.35934 9.7082,-17.03124 5.126087,-7.78216 5.472381,-8.84419 4.130191,-12.66667 -1.988204,-5.66227 -4.28755,-23.28873 -4.28755,-32.86776 0,-31.54191 29.534956,-120.82254 66.134619,-199.91702 13.721158,-29.65239 34.345508,-69.63544 49.203488,-95.38751 16.71107,-28.96382 57.03949,-90 59.46572,-90 1.43233,0 1.24785,0.49522 -10.18292,27.33334 -11.28693,26.50038 -19.56179,50.5567 -27.28893,79.33333 -7.93839,29.5633 -14.52186,49.27802 -29.60904,88.66666 -32.73989,85.47512 -40.172865,109.98617 -40.311482,132.93149 -0.12396,20.51947 1.417567,19.977 13.227432,-4.65472 46.10409,-96.15879 120.85866,-207.46355 195.32182,-290.82164 10.42147,-11.66635 20.38611,-23.3845 22.14365,-26.04034 1.75755,-2.65582 7.69819,-16.97978 13.20144,-31.83102 17.45608,-47.10751 32.96628,-80.64034 50.99502,-110.25043 10.26114,-16.85273 20.04536,-31.33333 21.17122,-31.33333 0.30538,0 -5.41137,11.55 -12.70385,25.66667 -21.02668,40.70302 -40.20708,86.26003 -44.24581,105.09203 -1.19704,5.58158 -1.07759,7.21279 0.7302,9.97184 2.56726,3.91815 21.7831,13.37636 56.74742,27.93162 63.51904,26.44228 115.76146,49.998 142.66667,64.32736 21.18068,11.28056 33.26371,19.08739 47.62556,30.77082 7.1726,5.83495 15.65272,11.91952 18.84468,13.52127 6.32969,3.17628 6.37512,3.43844 2.43501,14.05172 -1.08897,2.93333 -3.24098,16.43333 -4.78224,30 -1.54125,13.56666 -4.89689,34.86666 -7.45697,47.33333 C 583.32652,765.39425 564,919.46372 564,998.07408 v 20.44492 l 10.33333,9.9083 c 45.66354,43.7851 168.60323,143.4152 279.33883,226.3756 49.51284,37.0938 68.16136,49.8443 75.98052,51.9497 14.26763,3.8419 42.07856,-2.3146 105.65542,-23.3891 65.4018,-21.6794 128.1658,-44.5559 220.6919,-80.4386 50.1072,-19.4322 65.7852,-25.0587 88.0589,-31.6024 16.5803,-4.8711 36.5502,-12.9205 40.1604,-16.1877 1.2275,-1.1108 3.5952,-5.8821 5.2619,-10.6031 1.6667,-4.7209 3.6493,-8.3771 4.406,-8.1249 0.7567,0.2522 2.2416,3.4139 3.3,7.0259 1.6704,5.7009 4.0496,8.5901 18.0352,21.9006 8.8611,8.4333 21.7312,21.0333 28.6004,28 25.3012,25.66 104.4107,115.2989 172.9817,196.0055 36.4716,42.9262 50.644,57.3278 56.4155,57.3278 9.8073,0 51.1208,-15.148 92.7693,-34.0149 55.4875,-25.136 98.2878,-48.8681 144.0932,-79.8974 33.4614,-22.6672 38.9002,-27.0976 42.5799,-34.6851 6.4545,-13.3085 19.4227,-63.7207 29.226,-113.6118 13.9969,-71.2331 20.6268,-130.78 23.9856,-215.43091 1.4759,-37.19316 2.1601,-45.54661 3.9553,-48.28641 3.163,-4.82724 2.8223,-13.87469 -0.6621,-17.5836 -1.558,-1.65845 -3.3319,-5.59712 -3.9419,-8.7526 -1.3864,-7.17128 -1.5104,-21.23612 -0.2049,-23.24349 0.5388,-0.82846 6.0796,-4.52958 12.3129,-8.2247 6.2334,-3.69513 14.6944,-9.73606 18.8024,-13.4243 6.893,-6.18855 7.679,-6.55895 10.1883,-4.80131 4.6345,3.24611 16.1149,22.54969 19.5267,32.83261 8.527,25.70116 11.4912,64.27988 11.4552,149.09351 -0.032,74.6186 -1.6664,102.0625 -9.4535,158.6971 -14.3791,104.5773 -49.2623,229.1323 -76.2536,272.2729 -7.2607,11.6048 -18.9983,25.0604 -21.8608,25.0604 -1.7223,0 -1.9165,-1.434 -1.2193,-9 0.4562,-4.95 1.1976,-24.3 1.6476,-43 0.8973,-37.2858 -0.2907,-50.5186 -6.8827,-76.6666 -4.0668,-16.1311 -11.0901,-37.7231 -12.5675,-38.6361 -0.5901,-0.3647 -11.0881,6.8478 -23.3289,16.0279 -28.7623,21.5703 -47.4956,34.0626 -78.7205,52.4946 -43.4058,25.6222 -98.7683,52.2486 -154.5616,74.336 -28.4431,11.2598 -36.426,15.013 -39.6328,18.6334 -1.207,1.3627 -10.4268,16.2775 -20.4887,33.1442 -33.2909,55.8054 -75.0937,116.531 -115.1904,167.3333 -28.0992,35.6015 -52.5492,63.8609 -88.4145,102.19 -13.1355,14.0379 -25.384,27.5379 -27.2187,30 l -3.336,4.4767 6.9471,6.1682 c 10.7001,9.5004 20.0649,14.5207 34.6938,18.5983 15.5567,4.3361 19.2552,6.8249 30.6948,20.6547 4.5959,5.5561 10.79,11.4962 13.7648,13.2004 2.9748,1.7042 12.3088,4.731 20.7422,6.7264 27.4634,6.4978 48.4498,3.5177 104.3562,-14.8186 38.3902,-12.5913 67.776,-26.107 104.3119,-47.977 10.664,-6.3834 19.8263,-11.1543 20.3605,-10.6019 2.7792,2.8736 -53.9697,48.7443 -96.1296,77.7024 -16.8265,11.5576 -36.0624,25.2461 -42.7464,30.4191 -28.69,22.2041 -56.6873,39.5142 -96.4781,59.6502 -78.0987,39.5218 -175.5667,72.3692 -242.3412,81.6711 -8.8,1.2259 -36.1,5.4745 -60.6667,9.4416 -79.2867,12.8032 -78.0761,12.6949 -146.6666,13.1196 -31.9,0.1975 -61.60003,0.1539 -66.00003,-0.097 z m 432.79543,-96.6448 c 3.2671,-3.0519 3.7312,-4.2913 3.0236,-8.0757 -1.2185,-6.5178 -10.1996,-35.298 -28.2321,-90.4706 L 1376.3475,1834 l -24.5071,-0.9615 c -51.2479,-2.0105 -85.1135,-3.8675 -105.1214,-5.7643 -53.0495,-5.0292 -115.0033,-14.1865 -166.9578,-24.6778 -59.3722,-11.9892 -145.81469,-34.1306 -148.71032,-38.0906 -1.17533,-1.6073 -1.71971,-7.4246 -1.7244,-18.4273 -0.004,-8.8432 -0.59328,-27.1785 -1.31001,-40.7452 -3.56146,-67.4128 -7.37463,-195.5813 -8.85675,-297.6936 -0.60844,-41.9188 -1.38393,-62.952 -2.36576,-64.1655 C 915.99061,1342.4814 896.73333,1328.282 874,1311.9199 760.0508,1229.906 675.94712,1164.0686 576.41408,1078.9658 c -15.26108,-13.0485 -30.95129,-26.2538 -34.86715,-29.3452 -7.32941,-5.7862 -11.79865,-6.871 -17.81753,-4.3251 -1.68451,0.7125 -20.16273,7.8531 -41.06273,15.8681 -107.14402,41.0884 -202.75194,81.0833 -247.33334,103.465 l -18.66666,9.3714 0.1028,5.5006 c 0.12946,6.9304 2.80801,13.5128 6.2476,15.3536 1.45825,0.7804 11.72596,1.9772 22.81713,2.6595 23.2454,1.4299 43.18328,3.7812 73.96129,8.7222 l 21.7955,3.499 12.87117,10.0121 c 26.93315,20.9506 29.55309,23.6954 77.23852,80.9196 89.97455,107.9727 192.75811,205.5918 313.58999,297.8334 31.08114,23.7269 40.40656,32.0578 53.86674,48.1221 21.45606,25.6072 35.69063,45.8196 45.82384,65.0679 9.01152,17.1176 9.96692,18.1842 24.44938,27.295 7.29869,4.5916 16.41262,10.3256 20.25318,12.7424 3.84056,2.4168 13.13272,6.3168 20.64923,8.6667 7.51651,2.3499 13.66651,4.6736 13.66667,5.1637 6.6e-4,2.1168 -26.93746,16.0047 -48.66639,25.0899 -53.19023,22.2399 -139.28889,49.3485 -190.66667,60.0325 -4.4,0.915 -11.3,2.4264 -15.33333,3.3586 -4.03333,0.9322 -11.53333,2.4325 -16.66667,3.334 -12.00677,2.1085 -15.54716,3.9941 -6,3.1956 70.43868,-5.8919 110.4683,-11.8482 192.18354,-28.5964 62.46588,-12.803 60.52172,-12.5823 80.9107,-9.1822 16.86683,2.8127 19.4291,3.5134 45.52515,12.4487 7.674,2.6276 26.874,8.0416 42.66666,12.0312 96.2124,24.3051 164.106,35.4844 280.0473,46.1124 7.7,0.7059 16.1723,1.6232 18.8274,2.0387 12.9226,2.0218 50.2029,40.7224 75.393,78.2654 6.2808,9.3607 12.3983,17.5672 13.5944,18.2366 2.5619,1.4337 15.4999,-4.9672 21.6473,-10.7099 z M 227.36663,1547.6666 c -17.5015,-76.741 -25.40547,-127.0444 -30.22056,-192.3333 -1.93507,-26.2379 -2.34247,-118.8371 -0.66876,-152 l 1.14398,-22.6667 L 184.01997,1152 C 132.70983,1043.8567 102.40791,944.48214 89.321223,841.4372 c -2.87702,-22.65373 -3.209734,-24.10388 -5.530247,-24.10388 -3.428729,0 -30.30598,15.97936 -36.741821,21.84415 -6.884474,6.27361 -14.78992,17.5262 -13.335055,18.98106 0.387613,0.38762 2.410511,-0.1766 4.495327,-1.2538 6.801854,-3.51444 14.854096,-5.14297 17.754446,-3.59074 4.217503,2.25713 4.977863,4.90168 7.289426,25.35266 9.677514,85.61947 40.620071,189.67325 83.958491,282.33595 16.07829,34.3773 19.20658,48.0909 22.73493,99.664 6.05969,88.5731 16.76889,161.2147 33.61292,228 7.34397,29.1183 13.30237,47.353 18.20893,55.7254 3.88644,6.6317 6.74502,8.3038 5.59806,3.2746 z M 1376.7095,1199.4014 c 3.5165,-1.4693 4.6238,-2.7251 4.6238,-5.2435 0,-5.4355 -6.591,-6.0137 -12.3333,-1.0819 -3.8505,3.307 -2.7577,7.6675 2.0428,8.152 0.5736,0.058 3.1236,-0.7641 5.6667,-1.8266 z M 587.92351,611.52587 C 590.16559,605.88179 592,599.13779 592,596.53922 c 0,-4.13172 -0.37496,-4.67123 -2.98751,-4.29863 -5.09449,0.72656 -9.06877,13.56503 -8.9591,28.94139 0.0512,7.17929 0.12973,7.34434 1.9235,4.04526 1.02858,-1.89168 3.70455,-8.05729 5.94662,-13.70137 z m 863.88119,63.31308 c -1.2075,-0.46143 -9.9266,-7.81075 -19.3758,-16.33181 -102.733,-92.64202 -217.1659,-179.83489 -325.0956,-247.70865 -40.9783,-25.77006 -42,-26.497 -42,-29.88368 0,-3.70084 25.7239,-72.59824 44.6475,-119.58148 17.7338,-44.02907 34.7665,-82.66887 52.8369,-119.86364 l 14.5086,-29.86363 11.6702,0.87846 c 20.6414,1.55378 76.107,8.86871 108.0905,14.25521 108.7467,18.31459 234.0063,56.58001 288.5791,88.15772 8.435,4.8808 16.6232,14.0952 38.421,43.23588 58.4822,78.18289 108.0442,174.88957 144.0186,281.01241 5.3556,15.79846 6.2479,14.5352 -15.2969,21.65494 -80.3771,26.56152 -176.9496,63.1079 -258.8088,97.9421 -17.6,7.48946 -33.8,14.36374 -36,15.27617 -2.2,0.91243 -4.9879,1.28143 -6.1953,0.82 z m 8.7113,-72.11501 c 4.3199,-1.64242 7.484,-7.81984 7.484,-14.61134 0,-6.51444 -4.5327,-12.18721 -16.5448,-20.7066 -12.0189,-8.5242 -65.168,-41.55274 -74.2151,-46.1197 -7.6841,-3.87896 -13.2401,-5.06244 -13.2401,-2.82028 0,4.8433 25.5627,32.96953 51.9919,57.20596 18.1916,16.68225 29.2896,25.06336 35.7858,27.0251 4.866,1.4694 4.9435,1.46964 8.7383,0.0268 z M 437.34195,199.84222 c 0.0155,-3.30664 10.984,-14.74825 24.335,-25.38456 C 536.93903,114.49884 712.19737,40.833641 834,17.961538 c 33.39336,-6.270607 72.66667,-5.927164 72.66667,0.635467 0,4.640347 -11.78855,8.172881 -31.85287,9.54498 -28.90128,1.976412 -54.45852,6.954208 -96.14713,18.726621 -69.70028,19.682604 -143.57663,48.710976 -212.96011,83.678814 -44.34153,22.34722 -62.94143,33.79138 -86.56283,53.26044 -6.72314,5.54131 -12.79922,9.1137 -20.66666,12.15082 -13.3477,5.15269 -21.14775,6.58593 -21.13512,3.88354 z"
       id="path4495"
       inkscape:connector-curvature="0" />
    <path
       style="fill:#929292;stroke-width:1.33333337"
       d="m 997.33333,2077.7757 c -42.47961,-1.5337 -105.52692,-9.5079 -157.02765,-19.8605 -54.22027,-10.8995 -97.90569,-22.9632 -142.17995,-39.2631 -15.7931,-5.8143 -35.98566,-12.3925 -44.87237,-14.6184 -43.76785,-10.9623 -108.94565,-44.4488 -182.27567,-93.648 -66.77456,-44.8011 -114.04513,-83.9472 -175.05496,-144.9681 -48.47526,-48.4842 -82.08222,-86.9171 -102.30481,-116.9956 -11.15515,-16.592 -14.77035,-24.3252 -18.54225,-39.6634 -4.44268,-18.0658 -7.89258,-23.8508 -22.93503,-38.4588 -14.62928,-14.2068 -23.53272,-27.5449 -38.68354,-57.9513 C 80.747552,1446.7032 48.807191,1353.6584 30.012072,1269.2666 14.167839,1198.1246 7.1114221,1144.1666 3.7073036,1068.123 -0.04098724,984.39106 4.690214,916.70113 15.994159,892.33332 c 3.292169,-7.09689 4.380528,-8.33333 7.335336,-8.33333 4.609354,0 10.468893,3.14221 13.831714,7.41734 4.741912,6.02838 7.946983,16.98903 14.890328,50.92177 16.787208,82.0406 29.274279,123.8855 62.963383,210.9942 19.446,50.2808 19.86104,52.0161 37.72183,157.7169 23.04397,136.3752 36.87338,195.942 52.3805,225.6164 4.88786,9.3534 21.75679,33.0379 26.01318,36.5234 1.24704,1.0212 2.55864,1.5653 2.91466,1.2093 0.77172,-0.7717 -2.97797,-19.3527 -9.48129,-46.9829 -18.532,-78.7358 -26.55572,-146.6618 -28.12345,-238.0831 -0.91232,-53.201 1.37857,-100 4.89516,-100 1.4081,0 6.26946,20.5324 8.52356,36 1.01524,6.9667 3.43465,16.5667 5.37645,21.3333 4.7642,11.695 7.68489,23.7504 13.40575,55.3334 5.20194,28.7182 10.14602,45.359 19.96797,67.2084 19.1192,42.5316 25.09703,51.4078 72.81841,108.1249 23.82212,28.3127 76.68155,84.768 106.74412,114.0057 48.62452,47.2902 90.69319,84.529 142.4949,126.1351 52.48897,42.1581 61.44404,47.9579 102.66593,66.4912 l 15.3326,6.8936 58.6674,-0.4945 58.6674,-0.4947 18.66667,-5.0985 c 33.19934,-9.068 51.25969,-12.7379 62.66666,-12.734 12.40848,0 16.15944,1.5006 12,4.7872 -11.23045,8.8737 -95.81438,39.661 -154.66666,56.2962 -32.53646,9.1968 -46.19359,12.1996 -118.49846,26.0539 -9.44081,1.8089 -17.84081,3.9719 -18.66666,4.8064 -2.02939,2.0507 5.08821,7.9604 16.69756,13.8639 14.16594,7.2034 25.34398,8.2188 67.80089,6.1584 42.09383,-2.0428 112.52323,-2.0627 141.33333,-0.04 44.07854,3.0949 58.14784,6.6361 120.66667,30.3712 104.8323,39.799 206.5463,64.0041 306.6667,72.9778 35.5548,3.1868 63.596,9.1043 86.6634,18.2884 9.7216,3.8706 14.5206,5.1142 17.7271,4.5939 8.7503,-1.42 38.9396,-17.0613 51.2761,-26.5665 8.041,-6.1955 8.4527,-4.2952 -19.7049,-90.949 -8.3425,-25.6737 -15.8556,-49.4805 -16.6959,-52.904 l -1.5276,-6.2245 -10.8692,-0.7308 c -5.978,-0.402 -24.669,-1.0757 -41.5357,-1.4973 -91.9158,-2.2976 -195.6895,-16.4708 -299.3333,-40.8828 -38.36521,-9.0364 -92.21935,-23.4594 -93.91073,-25.1507 -3.50889,-3.5089 -12.73104,-267.4695 -12.76234,-365.2893 -0.007,-21.6334 -0.3914,-43.3439 -0.85439,-48.2456 l -0.8418,-8.9123 -22.81539,-16.3212 c -126.7888,-90.6988 -219.12901,-162.7221 -322.81538,-251.7885 -34.89854,-29.9777 -38.44546,-32.5763 -43.17474,-31.6304 -2.1053,0.4211 -25.65226,9.1554 -52.32656,19.4096 -111.3204,42.7941 -205.41706,82.3858 -254.11318,106.9194 -20.8932,10.5262 -23.12164,11.3677 -24.88936,9.3987 -1.06787,-1.1895 -7.65534,-14.2403 -14.63884,-29.002 -50.2844,-106.2903 -80.07434,-204.24205 -93.541853,-307.57302 -1.714924,-13.15795 -3.794754,-24.59796 -4.621846,-25.42224 -1.113975,-1.11021 -4.775198,0.22947 -14.123519,5.16795 -17.851632,9.43054 -28.956669,17.94842 -34.723477,26.63386 -2.689963,4.05138 -5.365462,7.36614 -5.945551,7.36614 -1.539003,0 -2.245872,-3.17326 -3.892833,-17.47559 -1.20094,-10.42905 -1.100296,-15.13593 0.541684,-25.33333 2.29578,-14.25778 7.135061,-33.50367 11.865954,-47.19108 1.774276,-5.13334 5.524179,-15.93334 8.333118,-24 l 5.107162,-14.66667 1.492308,9.72776 c 1.380607,8.99963 1.945744,10.16225 7.550058,15.53248 5.033309,4.82307 6.174206,6.83792 6.74639,11.91433 0.424622,3.76722 2.723026,9.56959 5.994874,15.13419 2.918428,4.96352 6.73801,13.07457 8.487962,18.02457 1.749954,4.95 3.546442,9 3.992198,9 0.445756,0 5.46909,-10.35 11.162964,-23 C 144.65377,679.90463 225.35953,557.38946 304.57465,469.99999 c 13.60256,-15.00622 19.80534,-22.77661 22.6445,-28.36738 1.21984,-2.40206 6.34301,-15.36158 11.38485,-28.79892 5.04183,-13.43735 11.68589,-30.37202 14.76459,-37.63262 6.4665,-15.25017 26.64008,-55.63685 27.40774,-54.86918 0.28487,0.28485 -3.88856,10.37672 -9.27425,22.42634 -15.6742,35.06846 -28.83541,71.85003 -28.83541,80.58612 0,6.63382 15.63932,15.97562 51.33333,30.66284 95.36917,39.24212 171.49428,75.23923 189.92981,89.81167 3.58747,2.83574 11.10227,7.6693 16.69954,10.74126 5.59726,3.07196 10.51625,6.46986 10.93108,7.55086 0.41481,1.08101 -0.7974,9.89826 -2.69383,19.5939 -27.21108,139.1189 -37.72445,201.40707 -47.53493,281.62844 -8.60827,70.39064 -11.98848,121.25373 -9.43332,141.94618 1.76945,14.3295 4.41137,21.2752 10.9092,28.6805 10.99054,12.5255 87.67974,77.6695 148.57445,126.2073 76.37992,60.8807 197.62416,152.2462 211.2244,159.1714 5.31559,2.7066 35.93691,6.4941 42.06027,5.2022 6.16682,-1.301 63.94723,-21.9909 104.00003,-37.2402 83.4342,-31.7659 154.4722,-60.6416 252.8285,-102.7705 34.9224,-14.9583 64.1051,-27.1969 64.8504,-27.1969 1.9104,0 39.6964,39.0907 70.0648,72.4839 60.5155,66.5432 96.5596,107.8168 159.5896,182.7438 15.6931,18.6552 31.9132,34.6703 41.0409,40.5224 l 8.3743,5.369 11.6436,-3.116 c 55.0393,-14.7295 158.296,-64.743 221.6079,-107.338 12.6676,-8.5227 16.0682,-10.5288 13.9958,-8.2566 -2.1802,2.3904 -37.5385,26.0887 -52.6625,35.2962 -53.1499,32.3574 -96.6388,53.6313 -176.3892,86.286 -13.0473,5.3424 -25.1439,10.8314 -26.8809,12.1978 -1.7372,1.3664 -11.8606,17.033 -22.4966,34.8147 -61.8098,103.336 -127.9193,189.7524 -217.333,284.0915 -31.5076,33.2432 -35.8132,38.3788 -32.9706,39.3264 1.0566,0.3521 7.1666,3.2662 13.5778,6.4757 16.9446,8.4825 19.7041,12.1713 40.1245,53.638 l 17.3352,35.2016 12.1861,12.1317 c 7.1096,7.078 14.9106,13.4643 18.7262,15.3302 6.1036,2.9849 6.9932,3.084 13.3302,1.4857 10.0315,-2.5303 39.9971,-15.6056 68.775,-30.0096 13.9417,-6.9783 25.3486,-12.1189 25.3486,-11.4239 0,2.1167 -26.9858,21.6738 -43.8142,31.753 -89.2898,53.4792 -210.6816,98.1668 -296.1858,109.0341 -9.9,1.2581 -37.5,5.494 -61.3333,9.4128 -50.1845,8.2515 -70.9297,10.7063 -106,12.5427 -22.8975,1.199 -62.3639,1.399 -88.66667,0.4493 z m 382.41387,-878.6568 c 2.2113,-1.4016 2.9637,-2.9636 2.6667,-5.5357 -0.7912,-6.8502 -13.1368,-4.9523 -17.2024,2.6446 -3.2527,6.0776 6.4605,8.0096 14.5357,2.8911 z M 581.68068,632.99999 c 5.82701,-15.29173 11.65265,-33.69655 11.65265,-36.81399 0,-1.28865 -0.84581,-3.49972 -1.87957,-4.91348 -1.85129,-2.53177 -1.92199,-2.53208 -4.69765,-0.0201 -3.73298,3.37831 -6.2551,12.50721 -9.44404,34.18311 -3.05171,20.74301 -2.98848,19.89782 -1.48824,19.89782 0.63644,0 3.27202,-5.55 5.85685,-12.33333 z M 1968.4643,1475 c 4.19,-32.847 4.2949,-75.0758 0.2442,-98.3334 -2.9262,-16.802 -12.2016,-50.7129 -16.0277,-58.5979 l -3.2016,-6.5979 5.8751,-17.4021 c 11.2904,-33.4421 24.4641,-90.6004 33.8192,-146.7354 9.5673,-57.4093 14.8406,-110.5724 17.4576,-175.99998 1.5184,-37.96173 1.8542,-41.33016 4.952,-49.65584 2.6092,-7.01285 1.7414,-14.66057 -2.2807,-20.10076 -3.8228,-5.17072 -6.7645,-25.54171 -4.1443,-28.69891 0.9092,-1.09564 6.8707,-5.05497 13.2476,-8.79852 6.3768,-3.74354 14.7632,-9.76676 18.6363,-13.38489 4.0305,-3.76513 7.8369,-6.27347 8.9005,-5.86529 3.1338,1.2025 15.526,21.29821 18.9488,30.72792 8.676,23.90216 12.4387,69.06855 12.4406,149.33687 0,70.5592 -1.9418,102.9585 -9.464,157.7727 -13.5151,98.484 -43.8434,211.8804 -70.6076,264 -7.8535,15.2934 -22.8636,34.6667 -26.8592,34.6667 -2.4988,0 -2.6723,-0.5673 -1.9368,-6.3333 z m -540.574,-821.17973 c -107.1392,-96.172 -220.413,-181.48456 -338.901,-255.24429 -12.2891,-7.65012 -22.6661,-14.91675 -23.0598,-16.14804 -1.2767,-3.99283 36.2151,-102.71313 61.4333,-161.76128 15.0079,-35.14074 32.9338,-73.97329 43.7001,-94.66666 l 6.9371,-13.33334 8.6667,0.37554 c 14.0643,0.60942 63.7116,6.69673 96,11.77064 106.1748,16.68473 221.7228,50.02497 289.122,83.42329 18.293,9.06473 19.4976,9.91528 27.7872,19.61969 44.7621,52.40196 93.0681,131.38157 127.9926,209.26584 16.0714,35.84044 43.0982,107.07777 43.0982,113.59832 0,1.38573 -1.05,3.07924 -2.3334,3.76333 -1.2833,0.68411 -20.3333,7.36233 -42.3333,14.84051 -76.8899,26.1362 -156.3839,56.74929 -246.1916,94.80832 -13.6721,5.79398 -25.7215,10.53452 -26.7764,10.53452 -1.0549,0 -12.3687,-9.38088 -25.1417,-20.84639 z m 35.9858,-49.35023 c 3.5226,-2.46729 10.7906,-17.41432 10.7906,-22.19132 0,-3.45001 -3.6938,-7.27373 -14.6667,-15.18274 -12.6668,-9.12994 -81.8016,-50.24104 -94.9428,-56.45784 -8.1215,-3.84207 -14.3905,-5.10508 -14.3905,-2.89919 0,4.17343 12.4394,18.47181 39.0993,44.94195 32.9169,32.68281 48.1561,45.83917 58.9007,50.8504 7.9188,3.69328 11.0048,3.88374 15.2094,0.93874 z M 438.66667,198.90906 c 0,-3.05537 16.19074,-19.10641 29.33333,-29.08021 46.71376,-35.45072 136.6032,-79.929031 227.00576,-112.325026 48.25443,-17.292097 108.21257,-34.030456 144.32757,-40.291556 20.42146,-3.540376 57.24136,-4.40659 63.84264,-1.501942 3.6984,1.627346 3.75507,1.787566 1.50986,4.268504 -3.88972,4.298092 -14.20014,6.768854 -33.57819,8.046591 -27.77247,1.831244 -53.16191,6.921758 -96.74453,19.397014 C 666.63453,78.259072 529.00525,140.63793 483.47092,179.2659 c -12.17404,10.32756 -17.71829,13.63931 -30.20489,18.04226 -13.23951,4.66844 -14.59936,4.81754 -14.59936,1.6009 z"
       id="path4493"
       inkscape:connector-curvature="0" />
    <path
       style="fill:#676767;stroke-width:1.33333337"
       d="m 827.33333,2052.7522 c -11.73333,-2.4392 -33.33333,-7.5786 -48,-11.4212 -14.66666,-3.8425 -29.0737,-7.469 -32.01565,-8.059 -7.43095,-1.4903 -33.53153,-10.3202 -39.48751,-13.3587 -2.70654,-1.3808 -7.78702,-4.9911 -11.28994,-8.0228 -6.26431,-5.4217 -6.49366,-5.4981 -13.95755,-4.6537 -9.02797,1.0214 -31.83081,-3.6555 -51.97793,-10.6607 C 567.89796,1974.7728 455.90573,1905.5168 377.33333,1839.9529 319.79023,1791.9366 259.02593,1730.674 216.69805,1678 c -29.09216,-36.2031 -36.66106,-49.6624 -42.6955,-75.9226 l -3.65891,-15.9225 -15.0258,-14.7441 C 140.00343,1556.3834 134.0186,1548.1146 121.00258,1524 c -7.18907,-13.3191 -22.426368,-46.8007 -30.339735,-66.6667 -16.845781,-42.2903 -48.60538,-139.8352 -46.284529,-142.1561 0.290272,-0.2902 1.277995,2.0261 2.194941,5.1475 10.371302,35.3051 48.202651,119.4738 73.703323,163.9781 17.90098,31.2412 24.60717,39.5094 45.67985,56.3206 20.28398,16.182 27.7658,21.5175 36.11322,25.7534 2.97163,1.5078 8.54668,5.5681 12.38899,9.0226 6.75216,6.0708 7.19509,6.2524 13.23189,5.425 3.43523,-0.4708 7.1317,-1.7419 8.21435,-2.8246 2.32533,-2.3253 2.27733,-2.6029 -8.75877,-50.6605 -14.64939,-63.7919 -24.82098,-132.4129 -24.25531,-163.6348 0.12333,-6.8041 0.45027,-9.9712 0.72663,-7.0379 6.79218,72.0912 22.98161,160.3203 36.47805,198.7982 8.11189,23.1266 14.21375,31.859 46.28271,66.2356 66.7201,71.521 171.63309,155.709 259.62181,208.3349 21.93483,13.1191 28.44625,15.9871 45.78317,20.1649 18.44328,4.4447 21.38666,5.5712 18.83832,7.21 -1.83838,1.1823 -6.47518,2.5718 -14.95482,4.4815 -6.92652,1.5599 -3.84856,8.4071 10.7942,24.0125 5.61318,5.9823 15.4959,18.8007 21.96161,28.4855 6.46569,9.6847 17.33444,23.7589 24.15277,31.276 16.93912,18.6752 54.75488,55.5564 62.09142,60.5569 21.67556,14.7738 79.09156,36.2887 127.66666,47.8392 5.31667,1.2643 9.66667,2.5176 9.66667,2.7851 0,0.8977 -3.23291,0.3611 -24.66667,-4.0947 z m 428.83057,0.025 c 0.4568,-0.486 13.3287,-4.8006 28.6041,-9.5879 61.07,-19.1395 92.658,-32.5145 122.5653,-51.8971 5.8667,-3.802 12.1156,-8.4924 13.8867,-10.423 l 3.22,-3.5103 -2.7745,-11.2389 c -1.526,-6.1815 -7.2651,-25.5375 -12.7534,-43.0132 -14.097,-44.8876 -16.8608,-54.27 -16.1853,-54.9455 0.3264,-0.3264 4.5543,7.7536 9.3952,17.9556 16.4253,34.6147 35.0404,71.8577 39.0569,78.1408 3.1618,4.9459 4.989,6.4439 8.7124,7.1424 13.83,2.5945 48.9463,-9.3341 100.4968,-34.138 11.9468,-5.7483 23.0468,-10.8637 24.6667,-11.3677 9.6555,-3.004 -12.9835,12.7804 -43.0548,30.0188 -67.644,38.7769 -170.4561,78.1752 -241.6341,92.5953 -17.139,3.4723 -35.6216,5.7791 -34.202,4.2687 z m 65.1694,-222.2016 c -106.8744,-3.4031 -224.6879,-21.6418 -344.66663,-53.3579 -41.09846,-10.8644 -43.22174,-11.5861 -43.94544,-14.9376 -0.35,-1.6209 -1.54904,-22.4472 -2.66452,-46.2805 -1.11547,-23.8334 -2.36203,-50.2334 -2.77011,-58.6667 -3.71304,-76.7319 -8.57993,-312.5733 -6.4934,-314.6599 0.66977,-0.6697 8.71531,-3.5585 17.87896,-6.4194 81.93094,-25.5794 268.57044,-99.7998 439.04854,-174.5954 l 7.7206,-3.3874 4.0916,3.8644 c 12.2755,11.5935 87.6754,96.8752 136.8728,154.8109 53.2426,62.6995 126.9276,153.4419 126.9276,156.3101 0,4.2114 -45.5724,77.2827 -74.0772,118.7762 -52.2614,76.0753 -100.5157,134.5774 -172.9117,209.6338 l -29.2581,30.3334 -12.2099,-0.2132 c -6.7153,-0.1174 -26.3097,-0.6622 -43.5431,-1.2108 z m 50.6731,-626.702 c 9.1177,-1.9553 14.0396,-6.1861 12.8253,-11.0242 -0.5012,-1.9972 -2.401,-4.2887 -4.2566,-5.1342 -4.4847,-2.0433 -13.587,2.2927 -18.5942,8.8575 -6.1418,8.0525 -3.261,10.1504 10.0255,7.3009 z m 597.8081,267.7926 c 3.7907,-37.185 3.5828,-73.6464 -0.5489,-96.3333 -2.4324,-13.3556 -7.7793,-33.8659 -12.8081,-49.1307 l -4.7651,-14.4641 6.8084,-23.5359 c 26.9008,-92.994 41.9341,-185.5801 48.8279,-300.71751 1.0926,-18.24985 2.896,-38.04985 4.0073,-44 1.1113,-5.95015 2.1653,-16.81844 2.3423,-24.15177 0.3041,-12.60431 0.112,-13.68437 -3.5227,-19.75365 -3.2676,-5.45727 -3.8676,-7.9286 -4,-16.47544 L 2006,873.04911 l 12.3911,-7.52456 c 6.815,-4.13851 15.6636,-10.41084 19.6634,-13.93854 3.9999,-3.52768 7.8403,-6.06304 8.5343,-5.63413 2.7056,1.67212 14.6404,20.94864 17.1912,27.76632 13.6595,36.50816 17.9888,165.3264 8.8255,262.6034 -7.9892,84.8125 -26.9946,175.1992 -53.4798,254.3408 -13.5876,40.6018 -24.6516,63.7529 -38.3936,80.3376 -9.7356,11.7493 -12.0617,11.8913 -10.9176,0.6666 z M 201.77085,1342 c 0.005,-5.1334 0.24691,-7.07 0.53555,-4.3036 0.28863,2.7664 0.28379,6.9664 -0.0107,9.3333 -0.29454,2.3669 -0.5307,0.104 -0.52478,-5.0297 z m 628.72574,-65.5516 c -1.65931,-2.0115 -1.55022,-2.0693 1.17008,-0.6198 3.10261,1.6532 3.86657,2.838 1.82992,2.838 -0.64354,0 -1.99354,-0.9982 -3,-2.2182 z m -9.34888,-7.1904 c -2.98216,-2.5977 -2.99383,-2.6675 -0.22196,-1.3261 1.60916,0.7787 3.29456,2.0125 3.74534,2.7419 1.31075,2.1208 -0.12626,1.5434 -3.52338,-1.4158 z m -9.33334,-6.547 c -1.73124,-1.4423 -2.49069,-2.6423 -1.68769,-2.6667 0.80301,-0.024 2.546,1.1557 3.87332,2.6223 3.08789,3.4121 1.88615,3.4365 -2.18563,0.044 z m -9.89286,-7.3353 c -1.4235,-1.0767 -1.91164,-1.9767 -1.08476,-2 0.82686,-0.023 2.25033,0.8576 3.16325,1.9576 2.10772,2.5397 1.2464,2.5572 -2.07849,0.042 z m -9.38152,-7.5646 c -2.53096,-2.8454 -2.52934,-2.849 0.46001,-1.0126 1.65,1.0136 3,2.2986 3,2.8555 0,1.6077 -0.74257,1.2122 -3.46001,-1.8429 z m -9.46564,-7.2667 -3.74102,-3.4556 4.33334,2.8797 c 3.96942,2.6379 5.26261,4.0315 3.74101,4.0315 -0.32577,0 -2.27577,-1.555 -4.33333,-3.4556 z m -9.92664,-7.2864 c -2.98216,-2.5977 -2.99383,-2.6675 -0.22196,-1.3261 1.60916,0.7787 3.29456,2.0125 3.74534,2.7419 1.31075,2.1208 -0.12626,1.5434 -3.52338,-1.4158 z m -12.12667,-9.3867 -4.35437,-4.1287 4.29301,2.8575 c 2.36116,1.5715 4.64656,3.4294 5.07869,4.1286 1.54592,2.5014 -0.73658,1.2015 -5.01733,-2.8574 z m -13.53453,-10.0346 C 743.36893,1210.4469 740,1207.4096 740,1207.0872 c 0,-0.912 11.72149,7.7284 14.20065,10.4678 3.80524,4.2048 1.06986,2.6899 -6.71414,-3.7183 z m -15.7988,-12.6321 -4.35438,-4.1286 4.29302,2.8574 c 2.36116,1.5716 4.64656,3.4295 5.07869,4.1287 1.54592,2.5013 -0.73659,1.2014 -5.01733,-2.8575 z m -12.7073,-10.0055 c -4.52952,-4.3663 -4.60756,-4.553 -0.862,-2.0623 4.25351,2.8285 8.1875,6.8632 6.69194,6.8632 -0.46723,0 -3.0907,-2.1604 -5.82994,-4.8009 z m -9.8327,-7.1548 c -1.73124,-1.4422 -2.4907,-2.6422 -1.6877,-2.6666 0.80302,-0.024 2.546,1.1556 3.87332,2.6223 3.0879,3.4121 1.88615,3.4365 -2.18562,0.044 z M 197.77312,1177 c -0.578,-0.9167 -6.52371,-13.0667 -13.21268,-27 -49.29676,-102.6868 -81.37613,-208.12392 -93.912187,-308.66668 -1.508674,-12.1 -3.058388,-23.03815 -3.443808,-24.307 -1.441809,-4.74661 26.746955,-67.27128 46.918545,-104.06861 35.21384,-64.23769 90.81144,-146.27552 138.24696,-203.99229 11.69312,-14.22751 35.97593,-42.2928 53.79438,-62.17383 l 4.16435,-4.64638 4.32996,3.64342 c 5.35047,4.50214 8.23323,5.71878 37.34136,15.75962 32.15683,11.09249 77.94371,28.55546 111.33333,42.46217 61.09262,25.44494 125.3628,55.44428 126.79848,59.18561 0.37752,0.98381 -2.3324,14.01717 -6.02206,28.96303 -26.26592,106.39628 -46.7488,222.25749 -59.37268,335.84093 -5.46139,49.1389 -7.4384,78.52541 -6.43155,95.59911 l 0.72332,12.2657 19.48559,18.4874 c 20.95386,19.8804 46.48317,42.6251 66.8189,59.5307 6.96667,5.7915 12.91515,11.1871 13.21884,11.9902 0.75039,1.9844 -10.33673,-7.1464 -49.21884,-40.5342 -9.9,-8.5011 -26.03578,-21.9446 -35.8573,-29.8746 -16.05972,-12.9667 -18.28386,-14.3488 -22.09475,-13.7304 -5.43561,0.8821 -68.68237,24.9993 -132.71461,50.6066 -75.44806,30.1727 -147.16128,61.1862 -182.72796,79.0235 -15.71186,7.8798 -16.58074,8.1494 -18.16559,5.636 z M 581.27211,643.08787 c 13.54309,-41.36005 15.41522,-51.13627 10.39456,-54.27991 -3.18398,-1.99361 -6.38511,0.1531 -9.31188,6.24462 -3.99639,8.3177 -13.07546,58.53272 -12.97906,71.7852 0.0389,5.34922 0.19966,5.62116 1.95324,3.30466 1.05095,-1.38832 5.52536,-13.56288 9.94314,-27.05457 z m 116.78,532.18493 c -2.17135,-1.7351 -3.67135,-3.4276 -3.33334,-3.761 0.33802,-0.3334 2.39111,0.8135 4.56246,2.5487 2.17134,1.7351 3.67134,3.4276 3.33333,3.761 -0.33801,0.3333 -2.39111,-0.8135 -4.56245,-2.5487 z M 686.35437,1165.2046 682,1161.076 l 4.29301,2.8574 c 2.36116,1.5716 4.64656,3.4295 5.0787,4.1287 1.54592,2.5013 -0.73659,1.2014 -5.01734,-2.8575 z m -13.406,-10.6945 -5.61504,-5.4899 5.64816,4.2539 c 5.53902,4.1718 7.96138,6.7259 6.3789,6.7259 -0.43834,0 -3.32375,-2.4705 -6.41202,-5.4899 z m -13.26066,-10.6388 -4.35438,-4.1287 4.29302,2.8575 c 2.36116,1.5715 4.64656,3.4294 5.07869,4.1286 1.54592,2.5014 -0.73659,1.2015 -5.01733,-2.8574 z m -13.89204,-11.3165 c -3.97499,-3.7594 -4.92274,-5.0926 -2.46234,-3.4637 4.13115,2.735 11.05686,9.5755 9.69475,9.5755 -0.42355,0 -3.67813,-2.7503 -7.23241,-6.1118 z M 28.856608,843.8044 C 27.43752,830.22729 27.754337,827.35657 31,824.38288 c 10.308759,-9.44495 38.263113,-14.63036 40.618283,-7.53452 0.276569,0.83327 -4.193406,4.22383 -9.933276,7.53459 -11.8138,6.8142 -22.842362,16.19349 -27.054208,23.00841 -1.56656,2.53475 -3.313882,4.60863 -3.882936,4.60863 -0.569055,0 -1.42012,-3.68802 -1.891255,-8.19559 z M 1435.808,659.81538 C 1319.4048,555.89223 1208.1414,471.63014 1092.8534,400.08857 c -26.4529,-16.41527 -26.4792,-16.43635 -25.7922,-20.66998 0.9197,-5.66725 26.9514,-75.14853 44.137,-117.80594 25.7602,-63.94096 63.5979,-146.05604 68.0963,-147.78226 4.198,-1.61089 70.653,6.22679 115.3722,13.60695 100.5704,16.59747 213.4333,49.82434 276.6666,81.45074 9.5334,4.76813 18.75,9.96892 20.4814,11.55729 5.3677,4.92427 27.1385,32.60149 42.074,53.48875 44.2385,61.86758 80.6678,129.90967 112.0601,209.30422 17.1755,43.43876 25.1767,67.54769 23.0956,69.59073 -0.9411,0.92384 -17.7444,7.11323 -37.3408,13.75419 -80.1987,27.17834 -164.8656,59.61888 -248.6656,95.27726 -14.8291,6.31004 -28.1155,11.4728 -29.5253,11.4728 -1.4099,0 -9.377,-6.08308 -17.7047,-13.51794 z m 28.1269,-49.78174 c 4.441,-2.29652 24.0651,-27.82456 24.0651,-31.30509 0,-1.30291 -1.2329,-3.93643 -2.74,-5.85224 -2.9675,-3.77259 -48.06,-32.30949 -73.9267,-46.78469 -16.5225,-9.24616 -56.431,-29.04719 -70.3588,-34.90931 -13.5673,-5.71042 -16.6721,-2.97306 -9.2083,8.11875 7.8957,11.73359 67.8291,70.37498 96.0549,93.98405 12.1472,10.16036 18.5774,14.45947 25.1158,16.79179 6.4434,2.29838 6.47,2.29828 10.998,-0.0432 z M 440,198.1705 c 0,-7.59662 39.46673,-38.07482 78,-60.23552 18.19956,-10.46665 66.34993,-34.51872 90.66667,-45.289787 83.44697,-36.962725 180.51733,-67.723884 240,-76.054916 C 875.67748,12.807192 904,13.608954 904,18.15667 c 0,3.963972 -11.28221,7.299083 -29.06741,8.592554 C 834.6896,29.67599 789.59365,40.344673 724,62.456471 634.51583,92.621824 528.32215,142.7556 489.66876,173.08369 c -5.31551,4.17063 -12.51551,9.83335 -16,12.5838 -6.32683,4.99404 -22.03619,12.33932 -29.64447,13.86099 C 440.8706,200.15921 440,199.86544 440,198.1705 Z"
       id="path4491"
       inkscape:connector-curvature="0" />
    <path
       style="fill:#020202;stroke-width:1.33333337"
       d="m 1288.1307,2046.0914 c 0.3164,-0.3162 12.8664,-4.8978 27.8889,-10.181 45.3333,-15.9434 69.0548,-27.1491 96.4459,-45.5598 14.9082,-10.0205 17.1564,-10.9121 34.2012,-13.565 26.0766,-4.0588 49.6012,-11.807 85.3333,-28.1059 9.1667,-4.1813 18.7667,-8.4623 21.3333,-9.5131 l 4.6667,-1.9106 -4,3.3549 c -5.298,4.4436 -36.8952,22.2572 -59.1475,33.3457 -41.945,20.9015 -92.8108,41.2547 -140.1858,56.0932 -29.961,9.3842 -69.3831,18.8888 -66.536,16.0416 z m -628.68437,-43.5669 c -53.72392,-7.8356 -175.5366,-77.9021 -273.51494,-157.3255 -29.88036,-24.2216 -51.80267,-44.2586 -88.03004,-80.4598 -58.32683,-58.2847 -101.65722,-110.2368 -114.38928,-137.1502 -3.88506,-8.2124 -9.2385,-28.9105 -8.5896,-33.2102 0.3758,-2.4903 1.49182,-2.7543 13.07753,-3.0938 13.74773,-0.4028 25.50015,-2.5865 41.83197,-7.7729 l 10.47499,-3.3264 2.84652,2.9736 c 1.56559,1.6355 9.27425,10.1859 17.13036,19.0007 19.81781,22.2364 73.19852,74.5458 100.38384,98.3694 61.65443,54.03 124.2796,99.463 198.66565,144.1271 13.2,7.9257 24.97516,15.3704 26.16702,16.5436 1.19185,1.1732 5.32456,9.6332 9.18381,18.7999 21.56264,51.2166 41.63665,81.0297 73.62181,109.34 7.03836,6.2296 12.84886,12.0766 12.9122,12.9933 0.13335,1.9299 -9.28365,2.0125 -21.77184,0.1912 z M 1296,1827.8994 c -100.7495,-5.0278 -216.6765,-24.6309 -335.33333,-56.7041 -28.65043,-7.7443 -25.53011,-5.6759 -26.5168,-17.5767 -5.10434,-61.5641 -12.09951,-291.9677 -11.24039,-370.2304 l 0.42385,-38.6118 4.66667,-1.694 c 2.56667,-0.9316 16.06667,-5.6603 30,-10.5081 102.9782,-35.8292 249.5763,-94.2524 384.8679,-153.3801 22.4774,-9.8235 41.4449,-17.8609 42.1501,-17.8609 3.5525,0 114.2864,126.3367 176.4683,201.3333 58.651,70.7382 87.847,107.9972 87.847,112.1078 0,6.6324 -46.2154,80.5585 -82.4534,131.8922 -48.9366,69.3222 -100.724,131.0515 -166.4255,198.375 l -23.7877,24.3749 -30,-0.2428 c -16.5,-0.1336 -39.3,-0.7069 -50.6667,-1.2743 z m 71.7164,-617.8926 c 7.544,-1.8277 15.494,-4.2423 17.6667,-5.3659 3.4696,-1.7942 3.9502,-2.7562 3.9502,-7.9062 0,-7.1121 -5.025,-14.0681 -10.1628,-14.0681 -7.077,0 -29.0481,14.8197 -34.6529,23.3737 -5.2687,8.0411 1.5607,9.2088 23.1988,3.9665 z M 1971.2728,1473 c 1.5284,-9.1116 3.3669,-36.955 3.3801,-51.192 0.027,-29.447 -4.5324,-57.6207 -14.6422,-90.4747 -2.9336,-9.5333 -5.3362,-18.3762 -5.339,-19.6509 0,-1.2747 2.7247,-11.972 6.061,-23.7718 19.7317,-69.7871 36.3077,-157.579 46.1786,-244.5773 0.7488,-6.6 1.9103,-12.6737 2.5811,-13.4971 3.3536,-4.1174 8.8587,-95.68513 7.0337,-116.99752 -0.6648,-7.76336 -1.8838,-12.34087 -4.6841,-17.58853 -4.5856,-8.59315 -6.2139,-17.05896 -3.8328,-19.92788 0.9245,-1.11404 6.6395,-5.02056 12.6999,-8.68119 6.0602,-3.66061 14.1625,-9.48224 18.005,-12.93693 l 6.9863,-6.28128 3.8827,4.62189 c 6.2925,7.49047 13.9326,24.16353 16.8758,36.82799 10.9436,47.09105 12.6118,171.12235 3.485,259.12725 -8.1792,78.8684 -26.3344,163.875 -50.8306,238 -15.7629,47.6982 -26.7436,70.2964 -42.2741,87 -2.2159,2.3833 -4.5384,4.3333 -5.1612,4.3333 -0.6227,0 -0.8051,-1.95 -0.4052,-4.3333 z M 187.63356,1152.3333 C 137.75048,1049.5569 106.22985,946.89873 92.580396,842.75884 l -3.558073,-27.14668 4.357729,-11.47275 C 125.78292,718.83118 201.57649,596.51286 280.59833,501.99999 c 24.35647,-29.13118 44.78003,-51.33333 47.22108,-51.33333 3.09262,0 62.76811,20.1144 90.18059,30.39653 55.55372,20.83763 130.13679,52.69051 177.11776,75.64332 l 13.11775,6.40876 -0.87615,5.84256 c -1.0992,7.33004 -4.22876,17.74515 -6.12248,20.37549 -1.24108,1.72384 -1.54513,1.73431 -2.20203,0.0757 -1.25873,-3.17806 -6.76352,-8.07574 -9.07681,-8.07574 -4.35177,0 -9.63891,7.3558 -13.00875,18.09862 -9.75073,31.08458 -30.45746,160.63194 -27.07217,169.37139 0.93928,2.42487 1.05343,2.43028 2.74699,0.13027 2.06878,-2.80961 8.83024,-27.02037 22.04414,-78.93358 5.22654,-20.53334 10.1395,-37.93334 10.9177,-38.66667 0.98841,-0.93141 1.16353,-0.1276 0.58096,2.66667 -1.27202,6.10102 -4.45875,22.08772 -10.76418,54 -3.9181,19.82989 -4.20098,21.36949 -9.92201,53.99999 -13.20787,75.33255 -24.68355,165.21922 -30.80471,241.28703 -1.78656,22.2017 -3.25042,33.8589 -4.39569,35.0041 -0.9444,0.9444 -22.69383,9.7429 -48.33204,19.5523 -112.01957,42.8594 -196.424,78.0671 -263.75745,110.0213 -9.42838,4.4744 -17.57631,8.1353 -18.10651,8.1353 -0.53021,0 -6.13305,-10.65 -12.45076,-23.6667 z M 1446.6037,666.99999 c -3.3077,-2.75 -16.7966,-14.60275 -29.9756,-26.33944 -97.7445,-87.04847 -203.6016,-166.56904 -317.9614,-238.85481 -26.0089,-16.43996 -29.9714,-19.38335 -29.7846,-22.12444 0.3063,-4.49499 21.8801,-62.40476 41.0867,-110.28744 21.512,-53.63004 38.2385,-91.70024 55.3645,-126.01188 l 14,-28.04865 8,0.38884 c 12.8134,0.62278 53.6812,5.35349 84,9.72353 106.0051,15.27918 231.6922,50.965 299.3878,85.00396 16.9414,8.51859 18.4069,9.57907 27.1009,19.61128 5.0551,5.83315 15.9441,19.60572 24.1981,30.60572 51.8959,69.16131 96.1691,152.27973 131.0326,246 13.365,35.92792 15.8017,43.6923 14.1964,45.23756 -0.687,0.66128 -17.4491,6.70682 -37.2491,13.43453 -80.4541,27.33696 -151.898,54.65627 -240.3593,91.91052 -19.2644,8.11289 -35.4754,14.75072 -36.0246,14.75072 -0.549,0 -3.7046,-2.25 -7.0124,-5 z m 24.1352,-48.18249 c 3.2603,-2.11704 10.7626,-8.26704 16.6718,-13.66667 5.9093,-5.39963 16.4248,-14.45956 23.3678,-20.13319 13.6079,-11.11992 21.2428,-19.86282 21.1856,-24.26002 -0.072,-5.52187 -12.03,-16.18982 -29.2974,-26.13651 -5.5,-3.1682 -17.42,-10.52067 -26.4888,-16.33884 -21.2367,-13.62458 -46.3752,-25.69324 -71.5112,-34.33157 -11,-3.78031 -30.8,-10.95352 -44,-15.94048 -13.2,-4.98696 -30.9,-10.97432 -39.3334,-13.30525 -8.4333,-2.33094 -22.5521,-6.29312 -31.3751,-8.80486 -18.0396,-5.1355 -20.9048,-5.44268 -23.3447,-2.50274 -6.3012,7.59252 24.5376,38.95577 118.7198,120.73885 55.749,48.4095 68.8812,58.53044 75.9458,58.53044 1.9426,0 6.1996,-1.73212 9.4598,-3.84916 z M 442.66667,196.38541 c 0,-1.78391 16.35805,-17.25825 26,-24.59541 73.15477,-55.668 239.76544,-125.866539 353.73002,-149.038079 32.21462,-6.549949 62.01444,-9.000107 74.75071,-6.146044 3.77016,0.844855 4.19305,1.289464 2.66667,2.80364 -2.88415,2.861076 -16.87067,5.923115 -27.0942,5.931676 C 848.71055,25.3613 800.20857,36.11613 744.49727,53.773284 643.14571,85.895676 528.73624,139.44418 482.21625,176.532 467.61696,188.1712 455.60969,195.08221 447,196.80138 c -2.48287,0.49579 -4.33333,0.31815 -4.33333,-0.41597 z"
       id="path4489"
       inkscape:connector-curvature="0" />
  </g>
</svg>
