<?xml version="1.0" encoding="UTF-8" standalone="no"?>
<!-- Created with Inkscape (http://www.inkscape.org/) -->

<svg
   xmlns:dc="http://purl.org/dc/elements/1.1/"
   xmlns:cc="http://creativecommons.org/ns#"
   xmlns:rdf="http://www.w3.org/1999/02/22-rdf-syntax-ns#"
   xmlns:svg="http://www.w3.org/2000/svg"
   xmlns="http://www.w3.org/2000/svg"
   xmlns:sodipodi="http://sodipodi.sourceforge.net/DTD/sodipodi-0.dtd"
   xmlns:inkscape="http://www.inkscape.org/namespaces/inkscape"
   version="1.1"
   id="svg2"
   width="71.267197"
   height="71.360931"
   viewBox="0 0 71.267197 71.360933"
   sodipodi:docname="ballon.svg"
   inkscape:version="0.92.2 (5c3e80d, 2017-08-06)">
  <metadata
     id="metadata8">
    <rdf:RDF>
      <cc:Work
         rdf:about="">
        <dc:format>image/svg+xml</dc:format>
        <dc:type
           rdf:resource="http://purl.org/dc/dcmitype/StillImage" />
        <dc:title />
      </cc:Work>
    </rdf:RDF>
  </metadata>
  <defs
     id="defs6" />
  <sodipodi:namedview
     pagecolor="#ffffff"
     bordercolor="#666666"
     borderopacity="1"
     objecttolerance="10"
     gridtolerance="10"
     guidetolerance="10"
     inkscape:pageopacity="0"
     inkscape:pageshadow="2"
     inkscape:window-width="1668"
     inkscape:window-height="1013"
     id="namedview4"
     showgrid="false"
     inkscape:zoom="7.8379227"
     inkscape:cx="27.435987"
     inkscape:cy="33.108943"
     inkscape:window-x="0"
     inkscape:window-y="0"
     inkscape:window-maximized="1"
     inkscape:current-layer="svg2"
     fit-margin-top="0"
     fit-margin-left="0"
     fit-margin-right="0"
     fit-margin-bottom="0" />
  <g
     id="ballon-1"
     transform="matrix(0.03431544,0,0,0.03431544,-0.05021382,-0.05192291)">
    <path
       style="fill:#d7d7d7;stroke-width:1.33333337"
       d="M 1014,2080.573 C 686.78581,2073.4857 365.86655,1905.1254 183.21677,1632.1797 115.8438,1526.231 54.938333,1414.0915 31.9368,1288.9776 0.48652576,1147.6059 -16.265988,997.05049 21.188722,855.74623 44.30366,651.09792 158.79677,466.29817 294.90053,316.36741 487.55906,108.95336 769.84216,-12.37358 1053.8744,3.1301644 c 245.4473,8.8660136 491.2555,96.9448856 673.9961,264.0072956 136.3386,122.25948 239.3972,283.3171 298.9403,456.31675 49.2134,159.06982 68.0306,327.80939 37.7681,492.58159 -20.6733,166.9136 -102.9284,318.1475 -197.5851,454.1436 -184.8741,244.9708 -481.3713,403.1464 -789.4489,409.5032 -21.1681,0.8811 -42.3605,1.1792 -63.5449,0.8904 z"
       id="path4501-6"
       inkscape:connector-curvature="0" />
    <path
       style="fill:#c8c8c8;stroke-width:1.33333337"
       d="M 992,2079.3273 C 722.4039,2065.2673 459.63709,1948.3523 276.50162,1748.5364 198.19857,1673.6166 154.44893,1574.2545 97.651112,1484.1297 19.493433,1301.1989 -17.08499,1096.101 10.408721,898.05112 40.207975,806.45227 36.071462,705.31415 91.111665,621.82306 164.0017,464.74227 269.95208,320.45054 409.59028,216.47916 391.12658,279.50651 307.03122,350.45008 306.74442,435.08431 325.08129,487.70262 355.70498,315.9641 393.2721,294.44824 440.54646,208.45238 486.4488,126.32234 590.73277,99.141832 735.95709,30.370556 906.35196,-21.766124 1062.5931,43.727426 c 100.2608,50.48038 204.2041,90.466434 317.7101,97.523304 71.479,18.43814 266.8049,96.51652 239.349,82.43271 22.131,92.6747 111.8614,166.31916 131.7101,267.89794 51.7915,110.42276 162.2408,176.26241 213.6852,286.65099 43.3588,62.68304 121.5436,59.21632 110.9106,158.15507 10.4857,202.47746 -12.8209,417.53166 -123.8985,592.15256 -156.6934,312.2843 -487.2847,526.9099 -835.4953,548.4986 -41.4186,3.3522 -83.051,4.2625 -124.5643,2.2887 z M 1379.2891,1853 c -84.2006,-52.9074 -194.5668,-3.6617 -284.6857,-49.0864 -46.776,-3.858 -232.45685,-45.2008 -99.79125,-5.6793 123.53045,39.6713 256.38815,49.7084 384.47695,54.7657 z m 313.6385,-344.9463 c 98.8175,6.7343 203.0162,-133.3334 272.9362,-91.6007 24.5947,-53.892 -31.7954,-141.1502 -72.1903,-56.3728 -69.1692,60.8356 -202.5716,71.4071 -243.056,145.0199 13.1117,5.4813 28.6451,8.2272 42.3101,2.9536 z M 917.08149,1404.7434 C 908.35613,1277.384 758.90367,1252.3954 683.34823,1174.2286 633.8821,1150.4927 570.05795,1029.9751 520.17036,1070.0792 c 106.42892,117.9843 240.26708,205.5091 364.27517,303.2464 23.95499,31.1639 37.54059,121.1992 32.63596,31.4178 z m 843.58521,-57.3696 c 110.1541,-18.4646 233.3056,-83.4039 227.0751,-212.5455 13.0519,-114.1888 43.0542,-245.58569 -28.1801,-346.67138 -50.3261,-86.14144 -116.0508,-162.12306 -185.9888,-232.8236 -93.1823,53.76027 -281.4295,50.89397 -304.0058,160.97485 3.2854,129.5164 -21.4769,257.51875 -25.6514,386.70863 66.7107,92.4151 155.1047,170.1501 244.1783,239.4824 22.5203,10.557 48.8354,12.3065 72.5727,4.8746 z m -382.7496,-150.8146 c 2.3023,-17.0454 -18.6187,12.9444 0,0 z M 191.84896,1174.1752 C 137.26159,1076.3072 94.770803,905.87257 84.172274,835.1767 c 6.088425,121.59106 50.005946,247.3 108.923996,347.3547 l -0.8655,-5.7983 z m 1167.93184,-48.2336 c 88.6477,-103.0828 48.5511,-251.97178 91.4825,-372.8381 C 1457.4938,621.61475 1314.2406,570.76601 1231.9801,497.37007 1167.9676,434.54693 1010.4789,407.00718 1093.978,297.45079 1111.2451,214.29191 1237.4727,94.358639 1093.926,75.622695 971.80426,26.13386 807.02857,-0.97372573 703.04214,98.911552 624.78001,194.49681 627.56227,330.0502 659.16071,443.29617 c 115.93347,66.48111 231.55528,-67.15736 353.26479,-57.36824 44.5689,27.40383 -161.59654,91.83708 -132.65622,70.91936 -95.29902,27.46264 -230.72429,96.44012 -122.7695,199.16386 117.16135,169.07647 254.31482,329.56994 423.88062,447.71615 56.6839,25.6105 121.022,2.427 178.9004,22.2143 z m 650.8859,-214.52959 c -1.6985,-14.21766 -5.0861,11.54219 0,0 z M 588.60529,604.13611 c 6.94817,-27.43248 -12.58758,17.53741 0,0 z m 870.72921,-8.99447 c -7.8613,-48.68315 -108.435,-66.88661 -32.6799,-15.01765 9.5001,4.08558 19.3556,22.50228 32.6799,15.01765 z"
       id="path4499-7"
       inkscape:connector-curvature="0" />
    <path
       style="fill:#b6b6b6;stroke-width:1.33333337"
       d="M 982,2078.6094 C 678.08544,2059.8897 380.36082,1907.643 202.97968,1658.1332 128.72024,1542.8895 59.424275,1422.7482 32.423941,1286.4779 -40.762037,997.43324 20.11988,678.02186 197.94651,438.24218 249.94938,364.04081 311.18073,295.68933 383.16199,240.33333 295.06366,346.33441 269.67038,487.14521 195.10368,601.19044 267.37687,514.17648 337.52516,424.51152 382.6937,320.06034 428.20043,200.3494 518.36385,107.89267 645.02483,76.801489 681.2756,46.721478 1001.4476,-23.707189 892.67106,20.575928 719.40691,65.498238 510.95053,103.14859 418.76212,276.86668 c -99.50472,136.26986 79.10685,181.29509 171.06772,226.2948 107.28643,57.24308 6.26083,173.88406 12.42943,264.46911 -7.02697,93.26633 -39.60901,218.95432 52.32904,279.66451 89.23718,83.2438 185.12157,159.5872 287.90545,225.4827 146.85834,-4.7107 273.96794,-91.8943 415.51584,-119.3073 58.9189,-38.3302 51.9962,-125.5275 62.7112,-179.64263 -8.5861,148.23643 83.6745,267.85803 174.9282,371.64783 73.865,130.852 213.7988,54.7586 302.6891,-11.4267 102.8898,-67.597 86.6006,-201.899 103.5614,-308.2456 10.0278,-62.25304 -26.1235,-252.99961 77.7115,-137.03997 -6.4699,133.56897 5.9379,273.75007 -30.6139,406.20797 -17.2021,46.4478 -41.8867,179.1288 -81.0434,161.5545 3.1875,-54.764 20.4277,-185.5643 -69.7156,-101.2794 -98.3194,74.3122 -250.7598,87.3108 -298.9085,216.2028 -42.1448,40.8343 -150.7646,202.4247 -23.4351,126.7049 111.9578,-36.0836 242.8336,-35.9944 330.935,-123.6519 50.9642,0.568 -59.8933,104.6472 -79.15,139.4977 -192.1536,230.9783 -487.8961,369.4009 -788.6929,366.2298 -19.0065,0.1761 -38.0224,-0.3202 -56.9866,-1.6204 z m 434.0876,-99.9897 c 18.1914,-144.7413 -138.8798,-177.5644 -247.0789,-156.3092 -81.4014,-9.1353 -163.1907,-61.6308 -245.4607,-34.9598 113.8325,56.9416 242.8245,72.5073 368.3098,70.1491 62.261,11.1936 95.2316,71.3481 124.2298,121.1199 z M 926.19715,1685.7472 c -27.85628,-120.0255 37.37566,-258.0761 -43.76048,-364.4617 -114.80083,-89.2509 -233.15323,-174.2683 -341.7477,-271.2042 -59.74546,-0.1889 -208.14752,74.0606 -197.39884,75.4197 116.99941,-53.5797 216.56487,23.1201 289.91275,106.7858 84.50774,84.4928 227.93513,135.0119 236.05913,270.6581 12.29949,68.086 15.77814,205.8558 58.98525,219.9585 -0.64904,-12.3887 -3.50425,-24.6925 -2.05011,-37.1562 z M 192.58973,1225 C 183.9221,1098.6036 99.082235,991.91324 91.171004,864.32413 43.855706,771.32678 111.5039,1070.8095 99.862096,992.67382 123.31419,1072.8584 156.76739,1149.676 192.58973,1225 Z m 1183.83117,-26.533 c 16.101,-19.7263 -23.8007,5.3287 0,0 z M 587.72884,608.33332 c 21.73971,-58.79285 -21.3323,21.44267 0,0 z m 841.32886,48 C 1316.7946,553.32556 1192.0383,465.03397 1064.2763,382.45391 c 52.4142,-92.2439 49.8545,-297.303192 204.7458,-259.68579 115.2972,18.31149 235.0276,40.15816 333.2907,107.25051 64.6984,89.74516 175.5342,238.65606 148.4745,327.1754 -107.6717,29.57176 -204.9212,115.72358 -321.7296,99.13929 z m 32.8471,-58.42857 c -3.3135,-59.70375 -127.7116,-74.46304 -38.1277,-18.06186 9.0354,9.21833 22.8809,24.106 38.1277,18.06186 z"
       id="path4497-5"
       inkscape:connector-curvature="0" />
    <path
       style="fill:#a6a6a6;stroke-width:1.33333337"
       d="M 984.66667,2077.8577 C 733.40147,2061.0935 485.54909,1961.0064 308.6371,1778.8276 216.56238,1706.1127 173.17627,1597.4189 109.03118,1503.583 29.741934,1339.5468 -1.2919895,1153.7252 1.4305906,972.63105 26.52677,862.79907 27.834897,746.81748 83.084375,644.45953 114.01509,581.07233 152.17396,492.04964 196.5691,451.74016 171.96697,541.38202 126.53984,791.25407 106.88831,753.96202 166.75025,651.66528 229.9176,552.31487 308.56107,463.96185 c 26.10342,-45.04368 82.59558,-172.96275 89.37265,-175.25736 -86.38177,93.46648 2.44617,185.63856 104.80162,193.25933 123.02334,22.2454 133.1154,134.23374 92.97557,230.01167 C 577.86658,813.19493 564.36968,915.58031 564,1018.519 c 115.51792,103.767 236.30873,202.1086 365.65268,288.2336 138.88232,-18.8692 264.54232,-86.8622 396.52512,-128.5995 119.6305,-86.1993 176.3521,116.2662 259.031,175.7336 72.6011,157.911 232.2714,41.0296 331.8259,-27.4147 69.7457,-54.7716 62.2916,-153.404 79.1406,-232.8204 12.3143,-76.4453 7.0143,-156.56395 16.9945,-231.2889 105.1593,-24.81709 49.9416,157.416 63.1122,224.9255 -7.8836,129.9926 -28.1217,266.1632 -93.4156,379.9916 -28.5955,-32.4634 0.1835,-218.2665 -91.2942,-107.2869 -114.6758,68.1128 -263.2393,96.9582 -314.4966,238.6797 -38.4149,81.0767 -160.1155,158.9235 -162.4374,228.7806 89.8504,86.8578 223.3067,40.1223 310.7602,-10.9896 -159.0704,146.0023 -364.922,239.7566 -580.8333,256.8226 -53.0721,5.9899 -106.5867,5.2862 -159.89843,4.5715 z m 432.79543,-96.6448 c 8.4152,-125.69 -80.8172,-169.7981 -190.2193,-156.2048 -100.3898,-10.3584 -199.9414,-30.0025 -296.19192,-60.5023 -8.99183,-140.1767 -9.01191,-280.7055 -14.25692,-421.0316 -132.905,-93.5284 -258.7426,-196.5279 -384.64724,-299.1407 -107.70657,36.6385 -213.1801,79.8796 -315.48005,129.6665 73.92489,45.8333 184.12249,27.849 218.36663,131.8355 107.35933,132.128 243.92824,235.8592 370.04499,347.8747 33.06187,48.9779 91.73392,118.257 102.46753,120.6987 -83.26001,43.024 -174.91477,65.8368 -265.96189,85.6518 118.42532,5.0257 237.81433,-68.1579 353.54539,-16.2305 106.72058,33.0403 220.43888,37.1357 328.22838,58.8617 34.8036,17.7298 45.1599,99.7067 94.1044,78.521 z M 227.36663,1547.6666 C 194.27798,1426.5995 194.6753,1299.8591 195.1016,1175.356 137.80933,1063.5365 101.81434,941.47737 83.790976,817.33332 -4.2961529,846.0837 94.8051,900.41411 80.558798,973.99872 124.02944,1110.0442 184.54803,1240.1453 182.92604,1386.0219 c 7.60547,53.6586 21.07124,121.3732 44.44059,161.6447 z M 1376.7095,1199.4014 c 14.9707,-25.1876 -25.5223,7.4214 0,0 z M 587.92351,611.52587 c 19.62671,-69.84619 -25.24622,51.21583 0,0 z m 863.88119,63.31308 C 1332.2778,565.2929 1200.3296,470.3186 1065.3333,380.91481 c 48.076,-81.54422 52.8095,-254.74713 151.3762,-265.16794 129.0624,17.37726 265.3596,39.61841 377.1662,108.04101 84.3976,93.5662 140.5638,209.49515 176.6692,329.43985 -107.3432,37.59499 -213.1838,79.3068 -318.7402,121.61122 z m 8.7113,-72.11501 c 18.6946,-63.55914 -162.2546,-110.04939 -49.3345,-32.06177 13.7589,13.69808 28.1103,30.90703 49.3345,32.06177 z M 437.34195,199.84222 C 544.4968,98.500485 691.19065,55.457456 829.7605,17.522784 890.27322,7.5782649 915.68971,28.81496 840.26214,32.849189 698.86957,59.383503 567.69241,123.85836 447.30333,199.46439 l -4.40394,1.38172 z"
       id="path4495-3"
       inkscape:connector-curvature="0" />
    <path
       style="fill:#929292;stroke-width:1.33333337"
       d="M 997.33333,2077.7757 C 741.17973,2063.7924 488.2986,1963.4618 307.83402,1778.0361 193.76148,1671.9613 118.02261,1530.8825 61.007137,1387.7566 15.429181,1227.8529 -18.186613,1057.9408 15.994159,892.33332 c 72.879361,58.91622 42.763508,180.59958 99.732831,257.02478 44.48502,129.0239 38.902,270.834 94.91833,396.4711 62.84636,84.2953 -60.95841,-281.2575 -8.10083,-147.1242 -3.74847,-59.8732 -15.57352,-157.6513 2.73555,-197.172 19.14114,113.288 53.8097,230.0669 144.65278,307.1467 97.36421,104.0665 198.87679,210.7491 327.04257,276.3641 58.58497,29.7733 227.68165,24.4894 209.50068,-0.9124 -69.84757,45.3373 -243.43937,53.142 -258.77475,91.4964 105.76778,26.5343 221.54934,-18.4674 321.61985,38.3733 115.71943,41.9008 236.82033,68.8467 359.36003,80.2063 121.9018,71.046 138.925,-126.659 45.6765,-163.5426 -119.3833,3.7027 -232.9626,-22.0612 -350.7494,-41.383 -142.51352,-39.0042 -53.25905,-230.8985 -82.88359,-339.0017 37.413,-126.9295 -96.08044,-162.805 -171.63699,-232.1013 -79.52534,-48.1807 -145.8227,-143.3299 -229.33935,-166.567 -117.68328,0.7738 -239.48026,153.5078 -342.1214,90.4805 C 123.78788,1045.129 117.10816,929.68197 80.634682,827.52089 42.732675,820.97731 18.277529,882.10932 28.717049,808.9064 31.655465,729.61732 65.142019,731.50906 91.545833,790.83034 145.09289,703.09267 183.88245,602.92548 258.59598,527.18875 300.68792,506.52788 402.95131,269.28903 372.29982,341.86988 c -86.55361,131.68946 119.86709,133.40121 190.26057,185.39139 102.01666,82.57461 -16.33814,225.48685 0.0401,335.50545 -43.66527,107.58414 10.39221,207.75098 104.8662,261.63588 82.63151,68.0581 167.57245,133.345 255.13976,194.9361 124.8201,2.8702 231.4084,-75.7622 346.2863,-113.4884 115.6977,-95.7081 201.1547,23.106 264.979,110.8514 61.9208,83.5772 138.6676,188.7696 243.9346,99.0638 40.5103,-15.5262 190.9652,-112.8151 88.6115,-42.941 -88.3408,59.852 -218.0681,71.7396 -260.169,182.2375 -65.0655,99.1308 -143.9208,188.0855 -222.3191,276.6924 63.5638,31.4225 77.7102,178.1535 172.1429,99.8243 91.328,-26.1833 -202.3423,112.0466 -135.7256,77.449 -134.4331,51.5359 -279.6313,70.3647 -423.01367,68.748 z m 382.41387,-878.6568 c 4.4903,-31.8724 -29.8368,19.7087 0,0 z M 581.68068,632.99999 c 30.89786,-50.89931 -10.8746,-55.38204 0,0 z M 1968.4643,1475 c 13.5422,-92.9908 -40.0446,-186.1805 11.3866,-277.116 39.4452,-108.732 0.4432,-250.19507 50.6339,-343.86341 89.0454,53.6618 31.9111,201.43271 41.2179,295.09531 -12.8638,112.2564 -34.3041,229.0661 -93.9922,326.3337 0.4147,10.0248 -14.1111,6.6527 -9.2462,-0.4496 z M 1427.8903,653.82027 C 1316.1925,552.09328 1192.9424,463.89778 1065.9295,382.42794 c 46.9979,-82.29768 52.3327,-255.43892 151.8108,-265.85072 130.1264,16.78016 267.76,39.87608 379.5853,110.17839 80.9076,93.53733 135.1437,207.10709 173.3411,323.96437 -108.9244,32.42186 -226.6293,104.95106 -330.2305,113.98796 -4.182,-3.62922 -8.3639,-7.25845 -12.5459,-10.88767 z m 35.9858,-49.35023 c 27.9905,-75.78835 -192.1008,-125.31127 -57.3809,-36.11645 15.5813,15.83588 32.2717,38.51159 57.3809,36.11645 z M 438.66667,198.90906 C 541.77084,99.51127 684.81746,60.851759 817.57159,19.894914 858.33444,9.146251 938.87053,21.199572 850.4036,30.074428 702.89793,55.752495 567.05506,124.20628 441.00153,201.06552 Z"
       id="path4493-5"
       inkscape:connector-curvature="0" />
    <path
       style="fill:#676767;stroke-width:1.33333337"
       d="M 827.33333,2052.7522 C 684.5261,2018.4238 541.93067,1971.6986 426.37628,1877.5625 309.56112,1793.2864 206.18831,1686.0922 145.24955,1554.5978 93.839843,1492.721 62.054819,1393.5874 50.222619,1329.9908 c 37.578586,94.5288 75.405971,208.5129 177.467911,250.8336 12.70018,-53.3027 -32.30416,-163.7932 -20.07555,-192.9878 7.21075,105.2549 33.4092,217.724 126.70395,280.0434 82.17322,75.7517 169.833,150.752 276.30256,189.5302 2.30482,96.9401 113.5087,162.3975 199.06242,187.5822 9.26395,2.8698 73.74396,19.749 17.64942,7.7598 z m 428.83057,0.025 c 83.0367,-14.9246 219.2757,-68.1457 143.2943,-171.4931 16.4949,85.0261 85.0173,119.6127 151.4401,55.4511 39.2024,-5.2337 -144.8311,77.0356 -118.2835,66.8277 -56.3913,23.7486 -115.4813,42.2313 -176.4509,49.2143 z m 65.1694,-222.2016 c -131.6121,-6.5066 -263.6391,-25.2867 -388.61207,-68.2955 -8.08724,-139.7112 -12.19262,-279.6598 -11.92803,-419.6071 158.1095,-52.9712 311.7936,-118.032 464.6481,-184.4022 94.1387,100.7474 183.4392,205.9967 267.892,314.9854 -73.324,132.6612 -169.0914,251.9361 -276.247,358.7434 -18.5891,-0.267 -37.1715,-0.8483 -55.753,-1.424 z m 50.6731,-626.702 c 57.9269,-35.8924 -53.7962,-1.9526 0,0 z m 597.8081,267.7926 c 13.6327,-89.7568 -39.6787,-180.0698 10.0183,-267.9501 42.6152,-107.6696 -3.6215,-269.79734 59.4614,-347.31255 72.3344,64.19628 25.7864,206.23355 31.1477,301.69385 -15.6044,110.3432 -33.9014,229.3859 -98.6241,321.8759 l -1.9005,-1.6712 z M 201.77085,1342 c 1.23439,-15.461 0.63829,18.0001 0,0 z m -3.99773,-165 C 140.31041,1064.7283 100.99686,942.59435 87.204445,817.02632 140.08151,676.22413 230.83705,553.45778 330.32868,442.14521 c 80.96064,55.95247 252.00292,57.65801 273.34546,150.19992 -32.26373,145.88714 -63.59405,293.45302 -64.6453,443.51967 26.84778,26.3867 129.35371,116.2775 50.30449,49.4741 -95.95288,-95.65632 -213.93367,42.4095 -317.24762,60.0998 -24.35063,11.4413 -48.5553,23.5253 -74.31259,31.5613 z M 581.27211,643.08787 c 32.35239,-87.13013 -30.04202,-10.58558 -9.02552,24.10998 l 5.47459,-11.17346 z M 28.856608,843.8044 c 36.501093,-75.7002 41.998122,16.82076 0,0 z M 1435.808,659.81538 C 1322.2541,557.68214 1199.8785,465.24087 1069.7798,385.18547 c 38.3615,-85.49373 51.1438,-256.4734 149.3679,-267.49264 128.488,13.92263 257.4494,42.42295 372.667,102.75254 81.7125,96.60794 141.8688,210.99755 177.2297,332.3837 -110.2125,26.4899 -225.5194,105.56249 -329.3215,109.97542 z m 28.1269,-49.78174 c 83.7464,-67.65963 -232.9024,-168.15997 -86.7351,-62.99773 24.4354,25.88039 50.7315,54.27561 86.7351,62.99773 z M 440,198.1705 C 550.69614,96.859527 699.77696,52.067039 842.13621,16.875609 936.62787,11.323182 862.53109,31.972059 818.03883,36.197933 685.56905,65.344919 561.00707,123.90415 448.47152,197.89279 l -4.44723,1.63569 z"
       id="path4491-6"
       inkscape:connector-curvature="0" />
    <path
       style="fill:#020202;stroke-width:1.33333337"
       d="m 1288.1307,2046.0914 c 63.0911,-23.8302 295.2351,-127.5167 254.4464,-99.1801 -78.1612,47.5475 -164.7098,81.3395 -254.4464,99.1801 z m -628.68437,-43.5669 c -189.71993,-62.6022 -341.57247,-203.7776 -466.71968,-354.345 -45.73761,-99.0414 85.24099,-68.5076 107.28575,-4.4244 85.0449,84.6616 182.08494,156.78 285.48795,217.445 -1.36388,54.2773 86.37595,98.3734 73.94598,141.3244 z M 1296,1827.8994 c -122.3424,-8.9696 -245.3766,-25.9953 -361.31959,-67.6028 -8.31721,-138.3311 -12.53837,-276.9348 -11.34708,-415.5202 156.75347,-53.6646 309.63757,-117.815 461.68467,-183.4431 92.5386,100.6 183.3395,203.1752 264.3153,313.4411 -71.1937,131.8759 -166.9292,249.0302 -272.6666,354.6421 -26.8923,-0.2204 -53.7958,-0.287 -80.6667,-1.5171 z m 71.7164,-617.8926 c 90.7789,-54.3478 -88.1249,6.6027 0,0 z M 1971.2728,1473 c -6.2736,-116.0744 -16.1326,-231.9094 22.6134,-343.6251 37.6577,-85.7417 -6.2249,-208.94164 40.8937,-272.42186 73.2369,42.83395 29.6522,172.17996 38.0012,250.00426 -7.4884,119.4677 -33.6498,251.3331 -85.9643,351.7845 -0.8525,-0.2934 -17.3218,29.5348 -15.544,14.2582 z M 187.63356,1152.3333 C 142.09915,1034.8592 65.90944,898.95939 107.2623,772.95587 161.73497,653.99357 237.5578,545.21959 327.81941,450.66666 c 82.1637,35.66348 245.69408,65.47561 266.4463,128.54146 -29.82975,40.4699 -50.43089,165.82862 -37.47313,173.37517 12.25501,-35.10054 36.81013,-135.13749 18.61015,-44.58331 -35.69904,107.30619 -10.80147,252.82744 -65.89221,338.56962 -103.48312,24.0938 -232.88071,123.3366 -318.57857,112.3303 l -2.54865,-5.074 z M 1446.6037,666.99999 C 1330.4368,559.11566 1200.2772,467.83159 1068.8821,379.6813 c 47.4595,-80.27935 51.6146,-250.95929 149.8696,-260.50286 129.076,16.54601 265.6964,39.40457 376.4517,109.43726 80.4276,93.32986 136.1619,205.93995 172.0457,323.28852 -107.909,31.68034 -217.3907,89.52082 -320.6454,115.09577 z m 24.1352,-48.18249 c 132.4679,-81.92414 -80.7607,-144.38608 -149.4056,-164.11253 -102.0672,-2.41547 91.0358,125.71661 126.0031,161.43053 l 11.4233,3.50786 z M 442.66667,196.38541 C 559.39872,96.629307 710.22581,46.633395 858.28114,16.27293 991.82476,17.400916 633.44957,55.399149 743.50358,53.874541 636.37868,85.197651 537.31628,141.41013 442.66667,196.38541 Z"
       id="path4489-2"
       inkscape:connector-curvature="0" />
  </g>
</svg>
